# Blender 4.5.3 LTS
# www.blender.org
mtllib Phone.mtl
o Cube.008
v -1.024150 -0.029820 -1.767758
v -0.874800 -0.029820 -1.917109
v -1.021281 -0.029820 -1.796896
v -1.012781 -0.029820 -1.824912
v -0.998980 -0.029820 -1.850732
v -0.980407 -0.029820 -1.873365
v -0.957774 -0.029820 -1.891938
v -0.931953 -0.029820 -1.905740
v -0.903937 -0.029820 -1.914239
v -0.872703 0.083018 -1.874438
v -0.981479 0.083018 -1.765662
v -0.895572 0.083018 -1.872185
v -0.915545 0.083018 -1.866126
v -0.933953 0.083018 -1.856287
v -0.950088 0.083018 -1.843046
v -0.963329 0.083018 -1.826912
v -0.973168 0.083018 -1.808504
v -0.979227 0.083018 -1.788530
v 0.805391 -0.029820 -1.917109
v 0.954741 -0.029820 -1.767759
v 0.834528 -0.029820 -1.914240
v 0.862544 -0.029820 -1.905740
v 0.888365 -0.029820 -1.891940
v 0.910998 -0.029820 -1.873366
v 0.929571 -0.029820 -1.850734
v 0.943372 -0.029820 -1.824913
v 0.951872 -0.029820 -1.796897
v 0.912070 0.083019 -1.765663
v 0.803294 0.083019 -1.874438
v 0.909818 0.083019 -1.788531
v 0.903759 0.083019 -1.808505
v 0.893920 0.083019 -1.826912
v 0.880679 0.083019 -1.843047
v 0.864544 0.083019 -1.856288
v 0.846136 0.083019 -1.866127
v 0.826163 0.083019 -1.872186
v -0.874799 -0.029820 1.903228
v -1.024148 -0.029820 1.753878
v -0.903936 -0.029820 1.900358
v -0.931952 -0.029820 1.891859
v -0.957772 -0.029820 1.878058
v -0.980405 -0.029820 1.859484
v -0.998979 -0.029820 1.836853
v -1.012780 -0.029820 1.811031
v -1.021279 -0.029820 1.783015
v -0.981478 0.083018 1.751781
v -0.872702 0.083018 1.860557
v -0.979226 0.083018 1.774649
v -0.973166 0.083018 1.794623
v -0.963327 0.083018 1.813031
v -0.950087 0.083018 1.829166
v -0.933952 0.083018 1.842407
v -0.915544 0.083018 1.852246
v -0.895570 0.083018 1.858305
v 0.954742 -0.029820 1.753877
v 0.805393 -0.029820 1.903227
v 0.951873 -0.029820 1.783014
v 0.943374 -0.029820 1.811030
v 0.929573 -0.029820 1.836851
v 0.910999 -0.029820 1.859483
v 0.888367 -0.029820 1.878056
v 0.862546 -0.029820 1.891858
v 0.834530 -0.029820 1.900357
v 0.803296 0.083018 1.860556
v 0.912072 0.083018 1.751780
v 0.826164 0.083018 1.858303
v 0.846138 0.083018 1.852245
v 0.864546 0.083018 1.842406
v 0.880681 0.083018 1.829164
v 0.893921 0.083018 1.813030
v 0.903760 0.083018 1.794622
v 0.909820 0.083018 1.774648
v -1.024150 0.083018 -1.767758
v -1.021281 0.083018 -1.796896
v -1.012781 0.083018 -1.824912
v -0.998980 0.083018 -1.850732
v -0.980407 0.083018 -1.873365
v -0.957774 0.083018 -1.891938
v -0.931953 0.083018 -1.905740
v -0.903937 0.083018 -1.914239
v -0.874800 0.083018 -1.917109
v 0.951872 0.083019 -1.796897
v 0.954741 0.083019 -1.767759
v 0.943372 0.083019 -1.824913
v 0.929571 0.083019 -1.850734
v 0.910998 0.083019 -1.873366
v 0.888365 0.083019 -1.891940
v 0.862544 0.083019 -1.905740
v 0.834528 0.083019 -1.914240
v 0.805391 0.083019 -1.917109
v 0.834530 0.083018 1.900357
v 0.805393 0.083018 1.903227
v 0.862546 0.083018 1.891858
v 0.888367 0.083018 1.878056
v 0.910999 0.083018 1.859483
v 0.929573 0.083018 1.836851
v 0.943374 0.083018 1.811030
v 0.951873 0.083018 1.783014
v 0.954742 0.083018 1.753877
v -1.021279 0.083018 1.783015
v -1.024148 0.083018 1.753878
v -1.012780 0.083018 1.811031
v -0.998979 0.083018 1.836853
v -0.980405 0.083018 1.859484
v -0.957772 0.083018 1.878058
v -0.931952 0.083018 1.891859
v -0.903936 0.083018 1.900358
v -0.874799 0.083018 1.903228
v -1.016986 -0.001183 0.320201
v -1.016986 0.000795 0.318222
v -1.015007 0.000795 0.320201
v -1.016986 -0.000604 0.318802
v -1.015843 -0.000347 0.319058
v -1.015586 0.000795 0.318802
v -1.015586 -0.000604 0.320201
v -1.016986 0.052403 0.318222
v -1.016986 0.054382 0.320201
v -1.015007 0.052403 0.320201
v -1.016986 0.053802 0.318802
v -1.015843 0.053546 0.319058
v -1.015586 0.053802 0.320201
v -1.015586 0.052403 0.318802
v -1.016985 -0.001183 0.550281
v -1.015007 0.000795 0.550281
v -1.016985 0.000795 0.552260
v -1.015586 -0.000604 0.550281
v -1.015843 -0.000347 0.551423
v -1.015586 0.000795 0.551680
v -1.016985 -0.000604 0.551680
v -1.016985 0.054382 0.550281
v -1.016985 0.052403 0.552260
v -1.015007 0.052403 0.550281
v -1.016985 0.053802 0.551680
v -1.015843 0.053546 0.551423
v -1.015586 0.052403 0.551680
v -1.015586 0.053802 0.550281
v -1.031313 -0.001183 0.320201
v -1.033292 0.000795 0.320201
v -1.031313 0.000795 0.318222
v -1.032712 -0.000604 0.320201
v -1.032455 -0.000347 0.319058
v -1.032712 0.000795 0.318802
v -1.031313 -0.000604 0.318802
v -1.031313 0.054382 0.320201
v -1.031313 0.052403 0.318222
v -1.033292 0.052403 0.320201
v -1.031313 0.053802 0.318802
v -1.032455 0.053546 0.319058
v -1.032712 0.052403 0.318802
v -1.032712 0.053802 0.320201
v -1.031313 -0.001183 0.550281
v -1.031313 0.000795 0.552260
v -1.033291 0.000795 0.550281
v -1.031313 -0.000604 0.551680
v -1.032455 -0.000347 0.551423
v -1.032712 0.000795 0.551680
v -1.032712 -0.000604 0.550281
v -1.031313 0.054382 0.550281
v -1.033291 0.052403 0.550281
v -1.031313 0.052403 0.552260
v -1.032712 0.053802 0.550281
v -1.032455 0.053546 0.551423
v -1.032712 0.052403 0.551680
v -1.031313 0.053802 0.551680
v -1.016985 -0.001183 0.966313
v -1.016985 0.000795 0.962948
v -1.015006 0.000795 0.966313
v -1.016985 -0.000604 0.963933
v -1.015843 -0.000347 0.964371
v -1.015586 0.000795 0.963933
v -1.015586 -0.000604 0.966313
v -1.016985 0.052403 0.962948
v -1.016985 0.054382 0.966313
v -1.015006 0.052403 0.966313
v -1.016985 0.053802 0.963933
v -1.015843 0.053546 0.964371
v -1.015586 0.053802 0.966313
v -1.015586 0.052403 0.963933
v -1.016985 -0.001183 1.357562
v -1.015006 0.000795 1.357562
v -1.016985 0.000795 1.360927
v -1.015586 -0.000604 1.357562
v -1.015843 -0.000347 1.359505
v -1.015586 0.000795 1.359942
v -1.016985 -0.000604 1.359942
v -1.016985 0.054382 1.357562
v -1.016985 0.052403 1.360927
v -1.015006 0.052403 1.357562
v -1.016985 0.053802 1.359942
v -1.015843 0.053546 1.359505
v -1.015586 0.052403 1.359942
v -1.015586 0.053802 1.357562
v -1.031312 -0.001183 0.966313
v -1.033291 0.000795 0.966313
v -1.031312 0.000795 0.962948
v -1.032711 -0.000604 0.966313
v -1.032455 -0.000347 0.964371
v -1.032711 0.000795 0.963933
v -1.031312 -0.000604 0.963933
v -1.031312 0.054382 0.966313
v -1.031312 0.052403 0.962948
v -1.033291 0.052403 0.966313
v -1.031312 0.053802 0.963933
v -1.032455 0.053546 0.964371
v -1.032711 0.052403 0.963933
v -1.032711 0.053802 0.966313
v -1.031312 -0.001183 1.357562
v -1.031312 0.000795 1.360927
v -1.033291 0.000795 1.357562
v -1.031312 -0.000604 1.359942
v -1.032455 -0.000347 1.359505
v -1.032711 0.000795 1.359942
v -1.032711 -0.000604 1.357562
v -1.031312 0.054382 1.357562
v -1.033291 0.052403 1.357562
v -1.031312 0.052403 1.360927
v -1.032711 0.053802 1.357562
v -1.032455 0.053546 1.359505
v -1.032711 0.052403 1.359942
v -1.031312 0.053802 1.359942
v -1.039138 0.083018 2.303646
v 0.969728 0.083019 2.303645
v -1.039138 0.083018 2.248120
v 0.969728 0.083019 2.248119
v -1.000353 0.083018 2.303646
v 0.930944 0.083019 2.303645
v -1.000353 0.083018 2.248120
v 0.930944 0.083019 2.248119
v -1.039138 0.083018 2.215038
v 0.969728 0.083019 2.215038
v -1.000353 0.083018 2.215038
v 0.930944 0.083019 2.215038
v -1.039138 0.083018 2.336727
v 0.969728 0.083019 2.336727
v -1.000353 0.083018 2.336727
v 0.930944 0.083019 2.336727
v 1.302726 0.083019 1.868815
v 1.302725 0.083018 -1.875238
v 1.247200 0.083019 1.868815
v 1.247199 0.083018 -1.875238
v 1.302726 0.083019 1.830031
v 1.302725 0.083018 -1.836454
v 1.247200 0.083019 1.830031
v 1.247199 0.083018 -1.836454
v 1.214119 0.083019 1.868815
v 1.214117 0.083018 -1.875238
v 1.214119 0.083019 1.830031
v 1.214117 0.083018 -1.836454
v 1.335808 0.083019 1.868815
v 1.335806 0.083018 -1.875238
v 1.335808 0.083019 1.830031
v 1.335806 0.083018 -1.836454
v 1.302726 0.083019 -0.072619
v 1.247200 0.083019 -0.072619
v 1.582889 0.083018 -0.331222
v 1.748664 0.083018 -0.331222
v 1.748664 0.083018 -0.364082
v 1.628302 0.083018 -0.364082
v 1.624553 0.083018 -0.367448
v 1.621230 0.083018 -0.370735
v 1.618316 0.083018 -0.373970
v 1.615790 0.083018 -0.377182
v 1.613633 0.083018 -0.380400
v 1.611826 0.083018 -0.383650
v 1.610350 0.083018 -0.386962
v 1.609185 0.083018 -0.390364
v 1.608313 0.083018 -0.393884
v 1.607713 0.083018 -0.397550
v 1.607368 0.083018 -0.401391
v 1.607257 0.083018 -0.405434
v 1.607498 0.083018 -0.409435
v 1.608229 0.083018 -0.413290
v 1.609466 0.083018 -0.416960
v 1.611223 0.083018 -0.420407
v 1.613512 0.083018 -0.423593
v 1.616349 0.083018 -0.426479
v 1.619747 0.083018 -0.429026
v 1.623721 0.083018 -0.431196
v 1.628285 0.083018 -0.432951
v 1.633452 0.083018 -0.434253
v 1.639237 0.083018 -0.435061
v 1.645655 0.083018 -0.435340
v 1.748664 0.083018 -0.435340
v 1.748664 0.083018 -0.468199
v 1.628302 0.083018 -0.468199
v 1.625321 0.083018 -0.471203
v 1.622487 0.083018 -0.474293
v 1.619822 0.083018 -0.477447
v 1.617349 0.083018 -0.480643
v 1.615091 0.083018 -0.483860
v 1.613072 0.083018 -0.487075
v 1.611315 0.083018 -0.490268
v 1.609841 0.083018 -0.493415
v 1.608676 0.083018 -0.496496
v 1.607841 0.083018 -0.499488
v 1.607361 0.083018 -0.502370
v 1.607257 0.083018 -0.505120
v 1.607540 0.083018 -0.509751
v 1.608385 0.083018 -0.514202
v 1.609784 0.083018 -0.518429
v 1.611728 0.083018 -0.522391
v 1.614212 0.083018 -0.526045
v 1.617226 0.083018 -0.529350
v 1.620763 0.083018 -0.532262
v 1.624815 0.083018 -0.534739
v 1.629375 0.083018 -0.536740
v 1.634435 0.083018 -0.538221
v 1.639987 0.083018 -0.539141
v 1.646024 0.083018 -0.539457
v 1.748664 0.083018 -0.539457
v 1.748664 0.083018 -0.572317
v 1.644547 0.083018 -0.572317
v 1.635047 0.083018 -0.571876
v 1.626145 0.083018 -0.570575
v 1.617883 0.083018 -0.568446
v 1.610306 0.083018 -0.565520
v 1.603457 0.083018 -0.561831
v 1.597380 0.083018 -0.557410
v 1.592119 0.083018 -0.552288
v 1.587716 0.083018 -0.546499
v 1.584216 0.083018 -0.540074
v 1.581662 0.083018 -0.533045
v 1.580097 0.083018 -0.525445
v 1.579566 0.083018 -0.517304
v 1.579844 0.083018 -0.511526
v 1.580653 0.083018 -0.505997
v 1.581954 0.083018 -0.500707
v 1.583709 0.083018 -0.495644
v 1.585880 0.083018 -0.490796
v 1.588427 0.083018 -0.486152
v 1.591313 0.083018 -0.481700
v 1.594499 0.083018 -0.477430
v 1.597946 0.083018 -0.473328
v 1.601616 0.083018 -0.469384
v 1.605471 0.083018 -0.465586
v 1.609472 0.083018 -0.461923
v 1.604773 0.083018 -0.459024
v 1.600462 0.083018 -0.455874
v 1.596544 0.083018 -0.452479
v 1.593022 0.083018 -0.448850
v 1.589900 0.083018 -0.444995
v 1.587181 0.083018 -0.440924
v 1.584870 0.083018 -0.436645
v 1.582971 0.083018 -0.432167
v 1.581487 0.083018 -0.427500
v 1.580422 0.083018 -0.422651
v 1.579781 0.083018 -0.417631
v 1.579566 0.083018 -0.412449
v 1.579736 0.083018 -0.408564
v 1.580246 0.083018 -0.404661
v 1.581101 0.083018 -0.400738
v 1.582301 0.083018 -0.396791
v 1.583850 0.083018 -0.392819
v 1.585750 0.083018 -0.388819
v 1.588005 0.083018 -0.384788
v 1.590615 0.083018 -0.380724
v 1.593585 0.083018 -0.376624
v 1.596915 0.083018 -0.372485
v 1.600611 0.083018 -0.368305
v 1.604672 0.083018 -0.364082
v 1.582889 0.083018 -0.364082
v 1.591012 0.083018 -0.292825
v 1.589313 0.083018 -0.288912
v 1.587728 0.083018 -0.285090
v 1.586264 0.083018 -0.281327
v 1.584926 0.083018 -0.277591
v 1.583723 0.083018 -0.273850
v 1.582658 0.083018 -0.270072
v 1.581740 0.083018 -0.266225
v 1.580975 0.083018 -0.262276
v 1.580368 0.083018 -0.258194
v 1.579927 0.083018 -0.253946
v 1.579657 0.083018 -0.249502
v 1.579566 0.083018 -0.244827
v 1.580281 0.083018 -0.232666
v 1.582390 0.083018 -0.221321
v 1.585843 0.083018 -0.210837
v 1.590588 0.083018 -0.201260
v 1.596574 0.083018 -0.192638
v 1.603750 0.083018 -0.185015
v 1.612064 0.083018 -0.178439
v 1.621465 0.083018 -0.172954
v 1.631902 0.083018 -0.168608
v 1.643323 0.083018 -0.165447
v 1.655678 0.083018 -0.163516
v 1.668915 0.083018 -0.162863
v 1.680788 0.083018 -0.163574
v 1.691991 0.083018 -0.165662
v 1.702456 0.083018 -0.169058
v 1.712113 0.083018 -0.173693
v 1.720893 0.083018 -0.179496
v 1.728727 0.083018 -0.186400
v 1.735546 0.083018 -0.194334
v 1.741280 0.083018 -0.203230
v 1.745861 0.083018 -0.213018
v 1.749218 0.083018 -0.223628
v 1.751283 0.083018 -0.234993
v 1.751987 0.083018 -0.247043
v 1.751897 0.083018 -0.251450
v 1.751635 0.083018 -0.255963
v 1.751214 0.083018 -0.260536
v 1.750647 0.083018 -0.265120
v 1.749947 0.083018 -0.269668
v 1.749126 0.083018 -0.274133
v 1.748197 0.083018 -0.278468
v 1.747174 0.083018 -0.282623
v 1.746068 0.083018 -0.286554
v 1.744894 0.083018 -0.290211
v 1.743663 0.083018 -0.293548
v 1.742388 0.083018 -0.296517
v 1.709897 0.083018 -0.296517
v 1.711666 0.083018 -0.292430
v 1.713282 0.083018 -0.288468
v 1.714743 0.083018 -0.284615
v 1.716051 0.083018 -0.280859
v 1.717205 0.083018 -0.277185
v 1.718204 0.083018 -0.273580
v 1.719051 0.083018 -0.270027
v 1.719743 0.083018 -0.266515
v 1.720281 0.083018 -0.263028
v 1.720666 0.083018 -0.259553
v 1.720897 0.083018 -0.256075
v 1.720974 0.083018 -0.252581
v 1.720547 0.083018 -0.244341
v 1.719283 0.083018 -0.236629
v 1.717207 0.083018 -0.229482
v 1.714341 0.083018 -0.222934
v 1.710712 0.083018 -0.217023
v 1.706344 0.083018 -0.211783
v 1.701259 0.083018 -0.207251
v 1.695484 0.083018 -0.203462
v 1.689043 0.083018 -0.200453
v 1.681959 0.083018 -0.198259
v 1.674257 0.083018 -0.196916
v 1.665961 0.083018 -0.196461
v 1.657799 0.083018 -0.196885
v 1.650138 0.083018 -0.198131
v 1.643018 0.083018 -0.200159
v 1.636479 0.083018 -0.202929
v 1.630561 0.083018 -0.206401
v 1.625302 0.083018 -0.210537
v 1.620744 0.083018 -0.215295
v 1.616925 0.083018 -0.220637
v 1.613885 0.083018 -0.226523
v 1.611665 0.083018 -0.232912
v 1.610304 0.083018 -0.239765
v 1.609841 0.083018 -0.247043
v 1.609921 0.083018 -0.250609
v 1.610173 0.083018 -0.254126
v 1.610615 0.083018 -0.257623
v 1.611264 0.083018 -0.261127
v 1.612138 0.083018 -0.264668
v 1.613257 0.083018 -0.268272
v 1.614636 0.083018 -0.271969
v 1.616296 0.083018 -0.275786
v 1.618253 0.083018 -0.279752
v 1.620525 0.083018 -0.283895
v 1.623130 0.083018 -0.288243
v 1.626086 0.083018 -0.292825
v 1.496863 0.083018 -0.144033
v 1.496863 0.083018 0.018789
v 1.531200 0.083018 0.018789
v 1.531200 0.083018 -0.090128
v 1.737957 0.083018 0.002174
v 1.751987 0.083018 -0.029947
v 1.707682 0.083018 0.077493
v 1.707885 0.083018 0.080488
v 1.708477 0.083018 0.083365
v 1.709430 0.083018 0.086095
v 1.710718 0.083018 0.088651
v 1.712313 0.083018 0.091008
v 1.714189 0.083018 0.093138
v 1.716320 0.083018 0.095015
v 1.718676 0.083018 0.096610
v 1.721233 0.083018 0.097898
v 1.723963 0.083018 0.098851
v 1.726839 0.083018 0.099442
v 1.729835 0.083018 0.099646
v 1.732830 0.083018 0.099442
v 1.735706 0.083018 0.098851
v 1.738436 0.083018 0.097898
v 1.740993 0.083018 0.096610
v 1.743350 0.083018 0.095015
v 1.745480 0.083018 0.093138
v 1.747356 0.083018 0.091008
v 1.748952 0.083018 0.088651
v 1.750239 0.083018 0.086095
v 1.751192 0.083018 0.083365
v 1.751784 0.083018 0.080488
v 1.751987 0.083018 0.077493
v 1.751784 0.083018 0.074498
v 1.751192 0.083018 0.071622
v 1.750239 0.083018 0.068892
v 1.748952 0.083018 0.066335
v 1.747356 0.083018 0.063978
v 1.745480 0.083018 0.061848
v 1.743350 0.083018 0.059972
v 1.740993 0.083018 0.058376
v 1.738436 0.083018 0.057088
v 1.735706 0.083018 0.056135
v 1.732830 0.083018 0.055544
v 1.729835 0.083018 0.055340
v 1.726839 0.083018 0.055544
v 1.723963 0.083018 0.056135
v 1.721233 0.083018 0.057088
v 1.718676 0.083018 0.058376
v 1.716320 0.083018 0.059972
v 1.714189 0.083018 0.061848
v 1.712313 0.083018 0.063978
v 1.710718 0.083018 0.066335
v 1.709430 0.083018 0.068892
v 1.708477 0.083018 0.071622
v 1.707885 0.083018 0.074498
v 1.714328 0.083018 0.130290
v 1.714328 0.083018 0.226654
v 1.698276 0.083018 0.213325
v 1.683441 0.083018 0.201370
v 1.669688 0.083018 0.190748
v 1.656882 0.083018 0.181419
v 1.644885 0.083018 0.173341
v 1.633563 0.083018 0.166473
v 1.622780 0.083018 0.160774
v 1.612399 0.083018 0.156203
v 1.602284 0.083018 0.152720
v 1.592301 0.083018 0.150282
v 1.582312 0.083018 0.148850
v 1.572182 0.083018 0.148381
v 1.560862 0.083018 0.149025
v 1.550204 0.083018 0.150916
v 1.540269 0.083018 0.153995
v 1.531118 0.083018 0.158200
v 1.522813 0.083018 0.163471
v 1.515416 0.083018 0.169749
v 1.508988 0.083018 0.176974
v 1.503591 0.083018 0.185084
v 1.499286 0.083018 0.194019
v 1.496135 0.083018 0.203720
v 1.494200 0.083018 0.214126
v 1.493541 0.083018 0.225177
v 1.493702 0.083018 0.230225
v 1.494190 0.083018 0.235221
v 1.495006 0.083018 0.240176
v 1.496152 0.083018 0.245101
v 1.497632 0.083018 0.250005
v 1.499448 0.083018 0.254899
v 1.501602 0.083018 0.259792
v 1.504097 0.083018 0.264696
v 1.506936 0.083018 0.269621
v 1.510121 0.083018 0.274576
v 1.513654 0.083018 0.279572
v 1.517539 0.083018 0.284620
v 1.562952 0.083018 0.284620
v 1.556854 0.083018 0.279581
v 1.551462 0.083018 0.274614
v 1.546741 0.083018 0.269713
v 1.542659 0.083018 0.264874
v 1.539182 0.083018 0.260091
v 1.536277 0.083018 0.255360
v 1.533910 0.083018 0.250675
v 1.532048 0.083018 0.246031
v 1.530658 0.083018 0.241422
v 1.529706 0.083018 0.236845
v 1.529159 0.083018 0.232293
v 1.528985 0.083018 0.227762
v 1.529386 0.083018 0.221715
v 1.530562 0.083018 0.215973
v 1.532475 0.083018 0.210576
v 1.535084 0.083018 0.205568
v 1.538348 0.083018 0.200991
v 1.542230 0.083018 0.196886
v 1.546689 0.083018 0.193298
v 1.551684 0.083018 0.190266
v 1.557177 0.083018 0.187835
v 1.563128 0.083018 0.186046
v 1.569497 0.083018 0.184942
v 1.576243 0.083018 0.184564
v 1.581337 0.083018 0.184687
v 1.586134 0.083018 0.185056
v 1.590689 0.083018 0.185672
v 1.595060 0.083018 0.186533
v 1.599302 0.083018 0.187641
v 1.603473 0.083018 0.188995
v 1.607628 0.083018 0.190594
v 1.611824 0.083018 0.192441
v 1.616118 0.083018 0.194533
v 1.620566 0.083018 0.196871
v 1.625224 0.083018 0.199455
v 1.630148 0.083018 0.202286
v 1.639466 0.083018 0.207977
v 1.649094 0.083018 0.214280
v 1.658958 0.083018 0.221098
v 1.668984 0.083018 0.228336
v 1.679096 0.083018 0.235896
v 1.689222 0.083018 0.243684
v 1.699286 0.083018 0.251602
v 1.709214 0.083018 0.259555
v 1.718932 0.083018 0.267446
v 1.728365 0.083018 0.275179
v 1.737439 0.083018 0.282659
v 1.746080 0.083018 0.289789
v 1.748665 0.083018 0.289789
v 1.748664 0.083018 0.130290
v 1.496863 0.083018 0.376184
v 1.496863 0.083018 0.412367
v 1.748665 0.083018 0.412367
v 1.748665 0.083018 0.376184
v 0.033264 0.083018 2.571296
v 0.033264 0.083018 2.737071
v 0.066124 0.083018 2.737071
v 0.066123 0.083018 2.616709
v 0.069490 0.083018 2.612960
v 0.072776 0.083018 2.609637
v 0.076011 0.083018 2.606723
v 0.079224 0.083018 2.604197
v 0.082441 0.083018 2.602040
v 0.085692 0.083018 2.600233
v 0.089004 0.083018 2.598757
v 0.092406 0.083018 2.597592
v 0.095926 0.083018 2.596720
v 0.099592 0.083018 2.596120
v 0.103432 0.083018 2.595775
v 0.107475 0.083018 2.595664
v 0.111476 0.083018 2.595905
v 0.115331 0.083018 2.596637
v 0.119001 0.083018 2.597873
v 0.122449 0.083018 2.599630
v 0.125634 0.083018 2.601919
v 0.128520 0.083018 2.604756
v 0.131067 0.083018 2.608154
v 0.133238 0.083018 2.612128
v 0.134993 0.083018 2.616692
v 0.136294 0.083018 2.621859
v 0.137103 0.083018 2.627645
v 0.137381 0.083018 2.634062
v 0.137381 0.083018 2.737071
v 0.170241 0.083018 2.737071
v 0.170241 0.083018 2.616709
v 0.173245 0.083018 2.613728
v 0.176334 0.083018 2.610894
v 0.179488 0.083018 2.608229
v 0.182684 0.083018 2.605756
v 0.185901 0.083018 2.603498
v 0.189117 0.083018 2.601479
v 0.192309 0.083018 2.599721
v 0.195456 0.083018 2.598248
v 0.198537 0.083018 2.597083
v 0.201530 0.083018 2.596249
v 0.204412 0.083018 2.595768
v 0.207162 0.083018 2.595664
v 0.211793 0.083018 2.595947
v 0.216243 0.083018 2.596792
v 0.220471 0.083018 2.598191
v 0.224433 0.083018 2.600135
v 0.228087 0.083018 2.602619
v 0.231391 0.083018 2.605633
v 0.234303 0.083018 2.609169
v 0.236781 0.083018 2.613222
v 0.238781 0.083018 2.617782
v 0.240262 0.083018 2.622842
v 0.241182 0.083018 2.628394
v 0.241498 0.083018 2.634431
v 0.241498 0.083018 2.737071
v 0.274358 0.083018 2.737071
v 0.274358 0.083018 2.632954
v 0.273917 0.083018 2.623454
v 0.272616 0.083018 2.614552
v 0.270487 0.083018 2.606290
v 0.267562 0.083018 2.598713
v 0.263872 0.083018 2.591865
v 0.259451 0.083018 2.585788
v 0.254330 0.083018 2.580526
v 0.248541 0.083018 2.576123
v 0.242116 0.083018 2.572623
v 0.235087 0.083018 2.570069
v 0.227486 0.083018 2.568504
v 0.219346 0.083018 2.567973
v 0.213567 0.083018 2.568251
v 0.208039 0.083018 2.569060
v 0.202749 0.083018 2.570362
v 0.197685 0.083018 2.572117
v 0.192838 0.083018 2.574287
v 0.188194 0.083018 2.576834
v 0.183742 0.083018 2.579720
v 0.179471 0.083018 2.582906
v 0.175369 0.083018 2.586353
v 0.171425 0.083018 2.590023
v 0.167627 0.083018 2.593878
v 0.163964 0.083018 2.597879
v 0.161066 0.083018 2.593180
v 0.157915 0.083018 2.588869
v 0.154520 0.083018 2.584951
v 0.150891 0.083018 2.581429
v 0.147037 0.083018 2.578307
v 0.142965 0.083018 2.575588
v 0.138686 0.083018 2.573277
v 0.134209 0.083018 2.571378
v 0.129541 0.083018 2.569894
v 0.124693 0.083018 2.568830
v 0.119673 0.083018 2.568188
v 0.114490 0.083018 2.567973
v 0.110605 0.083018 2.568143
v 0.106702 0.083018 2.568654
v 0.102779 0.083018 2.569508
v 0.098833 0.083018 2.570708
v 0.094861 0.083018 2.572257
v 0.090861 0.083018 2.574157
v 0.086830 0.083018 2.576411
v 0.082765 0.083018 2.579022
v 0.078665 0.083018 2.581992
v 0.074526 0.083018 2.585323
v 0.070347 0.083018 2.589018
v 0.066123 0.083018 2.593080
v 0.066123 0.083018 2.571296
v -0.005134 0.083018 2.579419
v -0.009047 0.083018 2.577720
v -0.012869 0.083018 2.576135
v -0.016632 0.083018 2.574671
v -0.020367 0.083018 2.573334
v -0.024108 0.083018 2.572130
v -0.027887 0.083018 2.571065
v -0.031734 0.083018 2.570147
v -0.035683 0.083018 2.569382
v -0.039765 0.083018 2.568775
v -0.044012 0.083018 2.568334
v -0.048457 0.083018 2.568064
v -0.053131 0.083018 2.567973
v -0.065292 0.083018 2.568688
v -0.076638 0.083018 2.570797
v -0.087122 0.083018 2.574250
v -0.096698 0.083018 2.578995
v -0.105321 0.083018 2.584981
v -0.112943 0.083018 2.592157
v -0.119520 0.083018 2.600471
v -0.125004 0.083018 2.609872
v -0.129350 0.083018 2.620309
v -0.132512 0.083018 2.631730
v -0.134442 0.083018 2.644085
v -0.135096 0.083018 2.657322
v -0.134384 0.083018 2.669194
v -0.132296 0.083018 2.680398
v -0.128900 0.083018 2.690862
v -0.124266 0.083018 2.700520
v -0.118462 0.083018 2.709300
v -0.111559 0.083018 2.717134
v -0.103625 0.083018 2.723953
v -0.094729 0.083018 2.729687
v -0.084941 0.083018 2.734268
v -0.074330 0.083018 2.737625
v -0.062965 0.083018 2.739691
v -0.050916 0.083018 2.740394
v -0.046509 0.083018 2.740304
v -0.041995 0.083018 2.740042
v -0.037423 0.083018 2.739621
v -0.032838 0.083018 2.739054
v -0.028290 0.083018 2.738354
v -0.023825 0.083018 2.737533
v -0.019491 0.083018 2.736604
v -0.015335 0.083018 2.735581
v -0.011405 0.083018 2.734476
v -0.007748 0.083018 2.733301
v -0.004411 0.083018 2.732069
v -0.001442 0.083018 2.730795
v -0.001442 0.083018 2.698304
v -0.005529 0.083018 2.700074
v -0.009491 0.083018 2.701689
v -0.013343 0.083018 2.703150
v -0.017099 0.083018 2.704458
v -0.020773 0.083018 2.705612
v -0.024379 0.083018 2.706612
v -0.027931 0.083018 2.707458
v -0.031444 0.083018 2.708150
v -0.034930 0.083018 2.708688
v -0.038406 0.083018 2.709073
v -0.041883 0.083018 2.709304
v -0.045378 0.083018 2.709381
v -0.053618 0.083018 2.708954
v -0.061329 0.083018 2.707690
v -0.068477 0.083018 2.705614
v -0.075024 0.083018 2.702749
v -0.080936 0.083018 2.699120
v -0.086176 0.083018 2.694751
v -0.090708 0.083018 2.689667
v -0.094497 0.083018 2.683892
v -0.097506 0.083018 2.677450
v -0.099700 0.083018 2.670366
v -0.101042 0.083018 2.662664
v -0.101498 0.083018 2.654368
v -0.101074 0.083018 2.646206
v -0.099828 0.083018 2.638545
v -0.097800 0.083018 2.631425
v -0.095030 0.083018 2.624886
v -0.091557 0.083018 2.618968
v -0.087422 0.083018 2.613709
v -0.082663 0.083018 2.609151
v -0.077321 0.083018 2.605332
v -0.071436 0.083018 2.602292
v -0.065047 0.083018 2.600072
v -0.058194 0.083018 2.598711
v -0.050916 0.083018 2.598248
v -0.047350 0.083018 2.598328
v -0.043833 0.083018 2.598580
v -0.040336 0.083018 2.599021
v -0.036831 0.083018 2.599670
v -0.033291 0.083018 2.600545
v -0.029687 0.083018 2.601664
v -0.025990 0.083018 2.603044
v -0.022172 0.083018 2.604703
v -0.018206 0.083018 2.606659
v -0.014063 0.083018 2.608932
v -0.009715 0.083018 2.611537
v -0.005134 0.083018 2.614494
v -0.217799 0.083018 2.481947
v -0.233510 0.083018 2.493221
v -0.247956 0.083018 2.505216
v -0.261118 0.083018 2.517870
v -0.272975 0.083018 2.531121
v -0.283510 0.083018 2.544904
v -0.292703 0.083018 2.559158
v -0.300534 0.083018 2.573820
v -0.306984 0.083018 2.588827
v -0.312034 0.083018 2.604115
v -0.315665 0.083018 2.619623
v -0.317858 0.083018 2.635288
v -0.318593 0.083018 2.651046
v -0.317919 0.083018 2.663972
v -0.315935 0.083018 2.676124
v -0.312703 0.083018 2.687436
v -0.308283 0.083018 2.697839
v -0.302734 0.083018 2.707269
v -0.296118 0.083018 2.715657
v -0.288494 0.083018 2.722938
v -0.279922 0.083018 2.729044
v -0.270463 0.083018 2.733910
v -0.260178 0.083018 2.737468
v -0.249126 0.083018 2.739652
v -0.237367 0.083018 2.740394
v -0.227453 0.083018 2.739695
v -0.217896 0.083018 2.737661
v -0.208794 0.083018 2.734389
v -0.200241 0.083018 2.729974
v -0.192334 0.083018 2.724514
v -0.185170 0.083018 2.718103
v -0.178844 0.083018 2.710839
v -0.173453 0.083018 2.702817
v -0.169092 0.083018 2.694134
v -0.165858 0.083018 2.684885
v -0.163848 0.083018 2.675166
v -0.163156 0.083018 2.665076
v -0.163775 0.083018 2.654866
v -0.165585 0.083018 2.645147
v -0.168515 0.083018 2.635994
v -0.172496 0.083018 2.627485
v -0.177455 0.083018 2.619692
v -0.183324 0.083018 2.612694
v -0.190031 0.083018 2.606564
v -0.197506 0.083018 2.601380
v -0.205679 0.083018 2.597216
v -0.214478 0.083018 2.594148
v -0.223834 0.083018 2.592252
v -0.233675 0.083018 2.591603
v -0.237752 0.083018 2.591707
v -0.241678 0.083018 2.592009
v -0.245455 0.083018 2.592491
v -0.249086 0.083018 2.593134
v -0.252574 0.083018 2.593921
v -0.255920 0.083018 2.594833
v -0.259128 0.083018 2.595853
v -0.262200 0.083018 2.596963
v -0.265139 0.083018 2.598145
v -0.267947 0.083018 2.599380
v -0.270626 0.083018 2.600651
v -0.273181 0.083018 2.601941
v -0.270167 0.083018 2.593151
v -0.266337 0.083018 2.584360
v -0.261747 0.083018 2.575629
v -0.256457 0.083018 2.567016
v -0.250526 0.083018 2.558583
v -0.244013 0.083018 2.550390
v -0.236977 0.083018 2.542496
v -0.229477 0.083018 2.534963
v -0.221572 0.083018 2.527850
v -0.213321 0.083018 2.521219
v -0.204782 0.083018 2.515128
v -0.196016 0.083018 2.509638
v -0.280934 0.083018 2.639231
v -0.277110 0.083018 2.636797
v -0.273545 0.083018 2.634657
v -0.270186 0.083018 2.632792
v -0.266986 0.083018 2.631190
v -0.263893 0.083018 2.629834
v -0.260858 0.083018 2.628708
v -0.257831 0.083018 2.627798
v -0.254761 0.083018 2.627088
v -0.251599 0.083018 2.626562
v -0.248295 0.083018 2.626206
v -0.244798 0.083018 2.626003
v -0.241059 0.083018 2.625939
v -0.235197 0.083018 2.626279
v -0.229636 0.083018 2.627272
v -0.224416 0.083018 2.628881
v -0.219577 0.083018 2.631067
v -0.215158 0.083018 2.633791
v -0.211199 0.083018 2.637016
v -0.207741 0.083018 2.640701
v -0.204822 0.083018 2.644810
v -0.202483 0.083018 2.649303
v -0.200762 0.083018 2.654143
v -0.199701 0.083018 2.659290
v -0.199339 0.083018 2.664706
v -0.199672 0.083018 2.670716
v -0.200653 0.083018 2.676358
v -0.202252 0.083018 2.681603
v -0.204439 0.083018 2.686421
v -0.207185 0.083018 2.690783
v -0.210461 0.083018 2.694659
v -0.214237 0.083018 2.698019
v -0.218483 0.083018 2.700834
v -0.223170 0.083018 2.703075
v -0.228268 0.083018 2.704713
v -0.233749 0.083018 2.705717
v -0.239582 0.083018 2.706058
v -0.246086 0.083018 2.705533
v -0.252414 0.083018 2.703979
v -0.258452 0.083018 2.701431
v -0.264087 0.083018 2.697922
v -0.269204 0.083018 2.693484
v -0.273688 0.083018 2.688151
v -0.277427 0.083018 2.681957
v -0.280305 0.083018 2.674935
v -0.282209 0.083018 2.667118
v -0.283024 0.083018 2.658539
v -0.282637 0.083018 2.649232
vn -0.9988 -0.0000 0.0491
vn -0.9988 -0.0000 -0.0491
vn 0.0491 -0.0000 0.9988
vn -0.0491 -0.0000 0.9988
vn -0.0491 -0.0000 -0.9988
vn 0.0491 -0.0000 -0.9988
vn 0.9988 -0.0000 -0.0491
vn 0.9988 -0.0000 0.0491
vn -0.9808 -0.0000 -0.1951
vn -0.9239 -0.0000 -0.3827
vn -0.8315 -0.0000 -0.5556
vn -0.7071 -0.0000 -0.7071
vn -0.5556 -0.0000 -0.8315
vn -0.3827 -0.0000 -0.9239
vn -0.1951 -0.0000 -0.9808
vn 0.9808 -0.0000 -0.1951
vn 0.9239 -0.0000 -0.3827
vn 0.8315 -0.0000 -0.5556
vn 0.7071 -0.0000 -0.7071
vn 0.5556 -0.0000 -0.8315
vn 0.3827 -0.0000 -0.9239
vn 0.1951 -0.0000 -0.9808
vn 0.1951 -0.0000 0.9808
vn 0.3827 -0.0000 0.9239
vn 0.5556 -0.0000 0.8315
vn 0.7071 -0.0000 0.7071
vn 0.8315 -0.0000 0.5556
vn 0.9239 -0.0000 0.3827
vn 0.9808 -0.0000 0.1951
vn -0.9808 -0.0000 0.1951
vn -0.9239 -0.0000 0.3827
vn -0.8315 -0.0000 0.5556
vn -0.7071 -0.0000 0.7071
vn -0.5556 -0.0000 0.8315
vn -0.3827 -0.0000 0.9239
vn -0.1951 -0.0000 0.9808
vn -0.0000 -1.0000 -0.0000
vn -0.0000 1.0000 -0.0000
vn -0.0000 -0.0000 -1.0000
vn -1.0000 -0.0000 -0.0000
vn 1.0000 -0.0000 -0.0000
vn -0.0000 -0.0000 1.0000
vn 0.3251 -0.8880 -0.3252
vn 0.3251 -0.8880 -0.3251
vn 0.3251 -0.3251 -0.8880
vn 0.3251 -0.3251 -0.8881
vn 0.8882 -0.3249 -0.3250
vn 0.3249 0.3249 -0.8882
vn 0.3249 0.8882 -0.3250
vn 0.8882 0.3249 -0.3249
vn 0.3250 -0.8881 0.3250
vn 0.8881 -0.3250 0.3249
vn 0.3252 -0.3252 0.8880
vn 0.3250 0.8881 0.3250
vn 0.3250 0.3249 0.8881
vn 0.8882 0.3250 0.3249
vn -0.3249 -0.8882 -0.3249
vn -0.8882 -0.3249 -0.3249
vn -0.3249 -0.3249 -0.8882
vn -0.3249 0.8882 -0.3249
vn -0.3249 0.3249 -0.8882
vn -0.8882 0.3249 -0.3249
vn -0.3250 -0.8881 0.3250
vn -0.3252 -0.3252 0.8880
vn -0.8881 -0.3250 0.3251
vn -0.3250 0.8881 0.3250
vn -0.8881 0.3250 0.3250
vn -0.3249 0.3251 0.8881
vn 0.3825 -0.9239 -0.0000
vn 0.9238 -0.3828 -0.0000
vn 0.3828 -0.0000 -0.9238
vn 0.9238 -0.0000 -0.3828
vn 0.3828 0.9238 -0.0000
vn 0.9238 0.3828 -0.0000
vn 0.3825 -0.0000 0.9240
vn 0.9238 -0.0000 0.3828
vn -0.0000 -0.9238 0.3829
vn -0.0000 -0.3828 0.9238
vn -0.0000 0.9238 0.3829
vn -0.0000 0.3828 0.9238
vn -0.9238 -0.0000 0.3829
vn -0.3828 -0.0000 0.9238
vn -0.3829 -0.9238 -0.0000
vn -0.9239 -0.3826 -0.0000
vn -0.3829 0.9238 -0.0000
vn -0.9239 0.3826 -0.0000
vn -0.3829 -0.0000 -0.9238
vn -0.9238 -0.0000 -0.3829
vn -0.0000 -0.9238 -0.3829
vn -0.0000 -0.3828 -0.9238
vn -0.0000 0.9238 -0.3829
vn -0.0000 0.3828 -0.9238
vn 0.3370 -0.9204 -0.1981
vn 0.4674 -0.4673 -0.7505
vn 0.9205 -0.3367 -0.1981
vn 0.4674 0.4674 -0.7504
vn 0.3370 0.9204 -0.1981
vn 0.9204 0.3371 -0.1982
vn 0.3370 -0.9204 0.1981
vn 0.9203 -0.3372 0.1982
vn 0.4674 -0.4674 0.7504
vn 0.3370 0.9204 0.1981
vn 0.4674 0.4674 0.7504
vn 0.9203 0.3372 0.1982
vn -0.3369 -0.9205 -0.1981
vn -0.9205 -0.3368 -0.1981
vn -0.4672 -0.4673 -0.7506
vn -0.3369 0.9205 -0.1980
vn -0.4672 0.4673 -0.7506
vn -0.9205 0.3368 -0.1980
vn -0.3369 -0.9205 0.1980
vn -0.4673 -0.4673 0.7506
vn -0.9205 -0.3369 0.1981
vn -0.3369 0.9205 0.1980
vn -0.9205 0.3369 0.1981
vn -0.4673 0.4673 0.7506
vn 0.3829 -0.9238 -0.0000
vn 0.5759 -0.0000 -0.8175
vn 0.9717 -0.0000 -0.2362
vn 0.3829 0.9238 -0.0000
vn 0.5759 -0.0000 0.8175
vn 0.9716 -0.0000 0.2367
vn -0.0000 -0.9716 0.2367
vn -0.0000 -0.5759 0.8176
vn -0.0000 0.9716 0.2367
vn -0.0000 0.5759 0.8176
vn -0.9716 -0.0000 0.2367
vn -0.5759 -0.0000 0.8175
vn -0.9238 -0.3829 -0.0000
vn -0.5759 -0.0000 -0.8175
vn -0.9716 -0.0000 -0.2368
vn -0.0000 -0.9716 -0.2367
vn -0.0000 -0.5759 -0.8175
vn -0.0000 0.9716 -0.2367
vn -0.0000 0.5759 -0.8175
vn -0.0002 1.0000 -0.0000
vn 0.0001 1.0000 -0.0000
vt 0.947472 0.031845
vt 0.973736 0.031845
vt 0.973736 0.825516
vt 0.947472 0.825516
vt 1.000000 0.394440
vt 0.973736 0.394440
vt 0.973736 0.017090
vt 1.000000 0.017090
vt 0.973736 0.458580
vt 1.000000 0.458580
vt 1.000000 0.831913
vt 0.973736 0.831913
vt 0.947472 0.827698
vt 0.921207 0.827698
vt 0.921207 0.018158
vt 0.947472 0.018158
vt 0.973736 0.831909
vt 0.947472 0.831909
vt 0.973736 0.837738
vt 0.947472 0.837738
vt 0.973736 0.842743
vt 0.947472 0.842743
vt 0.973736 0.426388
vt 1.000000 0.426388
vt 1.000000 0.432083
vt 0.973736 0.432083
vt 1.000000 0.438400
vt 0.973736 0.438400
vt 1.000000 0.445095
vt 0.973736 0.445095
vt 1.000000 0.451908
vt 0.973736 0.451908
vt 0.947472 0.834488
vt 0.921207 0.834488
vt 0.947472 0.841248
vt 0.921207 0.841248
vt 0.947472 0.847687
vt 0.921207 0.847687
vt 0.947472 0.853561
vt 0.921207 0.853561
vt 0.947472 0.858658
vt 0.921207 0.858658
vt 1.000000 0.848602
vt 0.973736 0.848602
vt 0.973736 0.843822
vt 1.000000 0.843822
vt 0.973736 0.838188
vt 1.000000 0.838188
vt 1.000000 0.401154
vt 0.973736 0.401154
vt 1.000000 0.407974
vt 0.973736 0.407974
vt 1.000000 0.414612
vt 0.973736 0.414612
vt 1.000000 0.420837
vt 0.973736 0.420837
vt 1.000000 0.426392
vt 0.973736 0.426392
vt 0.921207 0.000000
vt 0.947472 0.000000
vt 0.947472 0.005432
vt 0.921207 0.005432
vt 0.947472 0.011566
vt 0.921207 0.011566
vt 0.947472 0.025116
vt 0.973736 0.025116
vt 0.947472 0.018311
vt 0.973736 0.018311
vt 0.947472 0.011688
vt 0.973736 0.011688
vt 0.947472 0.005508
vt 0.973736 0.005508
vt 0.973736 0.000000
vt 1.000000 0.000000
vt 1.000000 0.004959
vt 0.973736 0.004959
vt 1.000000 0.010727
vt 0.973736 0.010727
vt 0.034760 0.889221
vt 0.027977 0.888550
vt 0.021461 0.886566
vt 0.015450 0.883362
vt 0.010185 0.879028
vt 0.005859 0.873764
vt 0.002647 0.867752
vt 0.000671 0.861237
vt 0.000000 0.854446
vt 0.000000 0.034760
vt 0.000671 0.027985
vt 0.002647 0.021454
vt 0.005859 0.015442
vt 0.010185 0.010178
vt 0.015450 0.005859
vt 0.021461 0.002640
vt 0.027977 0.000671
vt 0.034760 0.000000
vt 0.425842 0.000000
vt 0.432625 0.000671
vt 0.439148 0.002640
vt 0.445152 0.005859
vt 0.450424 0.010178
vt 0.454742 0.015442
vt 0.457954 0.021454
vt 0.459938 0.027985
vt 0.460602 0.034760
vt 0.460602 0.854446
vt 0.459938 0.861237
vt 0.457954 0.867752
vt 0.454742 0.873764
vt 0.450424 0.879028
vt 0.445152 0.883362
vt 0.439148 0.886566
vt 0.432625 0.888550
vt 0.425842 0.889221
vt 0.911270 0.035248
vt 0.910751 0.029922
vt 0.920540 0.027985
vt 0.921204 0.034760
vt 0.909340 0.025284
vt 0.918556 0.021454
vt 0.907051 0.020996
vt 0.915344 0.015442
vt 0.903969 0.017242
vt 0.911026 0.010178
vt 0.900215 0.014160
vt 0.905754 0.005859
vt 0.895927 0.011871
vt 0.899750 0.002640
vt 0.891281 0.010452
vt 0.893227 0.000671
vt 0.885956 0.009933
vt 0.886444 0.000000
vt 0.471062 0.029922
vt 0.470535 0.035248
vt 0.461273 0.027985
vt 0.472466 0.025284
vt 0.463249 0.021454
vt 0.474762 0.020996
vt 0.466461 0.015442
vt 0.477844 0.017242
vt 0.470787 0.010178
vt 0.481598 0.014160
vt 0.476051 0.005859
vt 0.485878 0.011871
vt 0.482063 0.002640
vt 0.490532 0.010452
vt 0.488579 0.000671
vt 0.495850 0.009933
vt 0.495361 0.000000
vt 0.490532 0.878754
vt 0.495850 0.879288
vt 0.495361 0.889221
vt 0.488579 0.888550
vt 0.485878 0.877350
vt 0.482063 0.886566
vt 0.481598 0.875061
vt 0.476051 0.883362
vt 0.477844 0.871979
vt 0.470787 0.879028
vt 0.474762 0.868225
vt 0.466461 0.873764
vt 0.472466 0.863937
vt 0.463249 0.867752
vt 0.471062 0.859283
vt 0.461273 0.861237
vt 0.470535 0.853958
vt 0.910751 0.859283
vt 0.911270 0.853958
vt 0.921204 0.854446
vt 0.920540 0.861237
vt 0.909340 0.863937
vt 0.918556 0.867752
vt 0.907051 0.868225
vt 0.915344 0.873764
vt 0.903969 0.871979
vt 0.911026 0.879028
vt 0.900208 0.875061
vt 0.905754 0.883362
vt 0.895927 0.877350
vt 0.899750 0.886566
vt 0.891281 0.878754
vt 0.893227 0.888550
vt 0.885956 0.879288
vt 0.886444 0.889221
vt 0.040604 0.889541
vt 0.040604 0.901553
vt 0.037415 0.901553
vt 0.037415 0.889541
vt 0.012989 0.889565
vt 0.025001 0.889565
vt 0.025001 0.941418
vt 0.012989 0.941418
vt 0.032974 0.943092
vt 0.029640 0.943092
vt 0.029640 0.889538
vt 0.032974 0.889538
vt 0.012338 0.942402
vt 0.000326 0.942402
vt 0.000326 0.889515
vt 0.012338 0.889515
vt 0.036797 0.889541
vt 0.036797 0.901553
vt 0.033585 0.901553
vt 0.033585 0.889541
vt 0.025658 0.943092
vt 0.025658 0.943417
vt 0.025391 0.943359
vt 0.025330 0.943092
vt 0.037148 0.889541
vt 0.037224 0.889275
vt 0.037460 0.889215
vt 0.012663 0.942425
vt 0.012604 0.942696
vt 0.012338 0.942745
vt 0.037460 0.901879
vt 0.037224 0.901819
vt 0.037148 0.901553
vt 0.029312 0.889538
vt 0.029373 0.889275
vt 0.029640 0.889214
vt 0.000326 0.942745
vt 0.000060 0.942696
vt 0.000000 0.942425
vt 0.025658 0.889538
vt 0.025330 0.889538
vt 0.025391 0.889275
vt 0.025658 0.889214
vt 0.012338 0.889214
vt 0.012604 0.889282
vt 0.012663 0.889534
vt 0.036835 0.889215
vt 0.037109 0.889275
vt 0.029640 0.943417
vt 0.029373 0.943359
vt 0.029312 0.943092
vt 0.037109 0.901819
vt 0.036835 0.901879
vt 0.000000 0.889534
vt 0.000060 0.889282
vt 0.000326 0.889214
vt 0.028992 0.943092
vt 0.029259 0.943359
vt 0.028992 0.943417
vt 0.012989 0.941698
vt 0.012723 0.941626
vt 0.012664 0.941383
vt 0.040642 0.889215
vt 0.040916 0.889275
vt 0.040955 0.889541
vt 0.032974 0.889214
vt 0.033241 0.889275
vt 0.033295 0.889538
vt 0.040955 0.901553
vt 0.040916 0.901819
vt 0.040642 0.901879
vt 0.025327 0.941383
vt 0.025267 0.941626
vt 0.025001 0.941698
vt 0.028992 0.889538
vt 0.028992 0.889214
vt 0.029259 0.889275
vt 0.033302 0.889541
vt 0.033379 0.889275
vt 0.033615 0.889215
vt 0.012664 0.889530
vt 0.012723 0.889259
vt 0.012989 0.889215
vt 0.033295 0.943092
vt 0.033241 0.943359
vt 0.032974 0.943417
vt 0.025001 0.889215
vt 0.025267 0.889259
vt 0.025327 0.889530
vt 0.033615 0.901879
vt 0.033379 0.901819
vt 0.033302 0.901553
vt 0.047722 0.889541
vt 0.047722 0.901553
vt 0.044540 0.901553
vt 0.044540 0.889541
vt 0.934196 0.859535
vt 0.946209 0.859535
vt 0.946209 0.947716
vt 0.934196 0.947716
vt 0.950195 0.950279
vt 0.946861 0.950279
vt 0.946861 0.859215
vt 0.950195 0.859215
vt 0.921533 0.859512
vt 0.933545 0.859512
vt 0.933545 0.949448
vt 0.921533 0.949448
vt 0.041336 0.901553
vt 0.041336 0.889541
vt 0.950851 0.950272
vt 0.950851 0.950836
vt 0.950584 0.950729
vt 0.950523 0.950272
vt 0.921533 0.858665
vt 0.921533 0.858940
vt 0.921267 0.859032
vt 0.921207 0.858894
vt 0.921207 0.859489
vt 0.933545 0.858665
vt 0.933871 0.858894
vt 0.933811 0.859032
vt 0.933545 0.858940
vt 0.946533 0.859215
vt 0.946594 0.858757
vt 0.946861 0.858658
vt 0.933871 0.859489
vt 0.950851 0.859207
vt 0.950523 0.859207
vt 0.950584 0.858765
vt 0.950851 0.858658
vt 0.921533 0.949974
vt 0.921267 0.949867
vt 0.921207 0.949432
vt 0.041275 0.901879
vt 0.040985 0.901819
vt 0.946861 0.950829
vt 0.946594 0.950729
vt 0.946533 0.950279
vt 0.040985 0.889275
vt 0.041275 0.889215
vt 0.933871 0.949432
vt 0.933811 0.949867
vt 0.933545 0.949974
vt 0.954185 0.950272
vt 0.954506 0.950272
vt 0.954453 0.950729
vt 0.954185 0.950836
vt 0.934196 0.948219
vt 0.933931 0.948105
vt 0.933871 0.947678
vt 0.047791 0.889215
vt 0.048073 0.889275
vt 0.048103 0.889541
vt 0.950195 0.858658
vt 0.950462 0.858757
vt 0.950516 0.859215
vt 0.048103 0.901553
vt 0.048073 0.901819
vt 0.047791 0.901879
vt 0.946534 0.947678
vt 0.946475 0.948105
vt 0.946209 0.948219
vt 0.954185 0.859207
vt 0.954185 0.858658
vt 0.954453 0.858765
vt 0.954506 0.859207
vt 0.934196 0.858665
vt 0.934196 0.858971
vt 0.933931 0.859055
vt 0.933871 0.858887
vt 0.933871 0.859505
vt 0.950516 0.950279
vt 0.950462 0.950729
vt 0.950195 0.950829
vt 0.946209 0.858971
vt 0.946475 0.859055
vt 0.946534 0.859505
vt 0.946209 0.858665
vt 0.946534 0.858887
vt 0.044479 0.901879
vt 0.044479 0.889215
vt 0.044609 0.889215
vt 0.044609 0.901879
vt 0.000000 0.000000
vt 0.886792 0.000000
vt 0.867925 0.000000
vt 0.877358 0.000000
vt 0.660377 0.000000
vt 0.641509 0.000000
vt 0.650943 0.000000
vt 0.896226 0.000000
vt 0.858491 0.000000
vt 0.669811 0.000000
vt 0.632075 0.000000
vt 0.905660 0.000000
vt 0.849057 0.000000
vt 0.679245 0.000000
vt 0.915094 0.000000
vt 0.839623 0.000000
vt 0.622642 0.000000
vt 0.688679 0.000000
vt 0.924528 0.000000
vt 0.009434 0.000000
vt 0.990566 0.000000
vt 0.830189 0.000000
vt 0.698113 0.000000
vt 0.933962 0.000000
vt 0.613208 0.000000
vt 0.820755 0.000000
vt 0.943396 0.000000
vt 0.707547 0.000000
vt 0.811321 0.000000
vt 0.603774 0.000000
vt 0.952830 0.000000
vt 0.716981 0.000000
vt 0.801887 0.000000
vt 0.962264 0.000000
vt 0.726415 0.000000
vt 0.594340 0.000000
vt 0.792453 0.000000
vt 0.971698 0.000000
vt 0.735849 0.000000
vt 0.783019 0.000000
vt 0.981132 0.000000
vt 0.584906 0.000000
vt 0.745283 0.000000
vt 0.773585 0.000000
vt 0.754717 0.000000
vt 0.396226 0.000000
vt 0.575472 0.000000
vt 0.028302 0.000000
vt 0.037736 0.000000
vt 0.047170 0.000000
vt 0.056604 0.000000
vt 0.066038 0.000000
vt 0.075472 0.000000
vt 0.084906 0.000000
vt 0.094340 0.000000
vt 0.103774 0.000000
vt 0.113208 0.000000
vt 0.122642 0.000000
vt 0.132075 0.000000
vt 0.141509 0.000000
vt 0.764151 0.000000
vt 0.386792 0.000000
vt 0.150943 0.000000
vt 0.405660 0.000000
vt 0.377358 0.000000
vt 0.160377 0.000000
vt 0.415094 0.000000
vt 0.367925 0.000000
vt 0.169811 0.000000
vt 0.424528 0.000000
vt 0.358491 0.000000
vt 0.179245 0.000000
vt 0.433962 0.000000
vt 0.349057 0.000000
vt 0.566038 0.000000
vt 0.188679 0.000000
vt 0.339623 0.000000
vt 0.443396 0.000000
vt 0.330189 0.000000
vt 0.198113 0.000000
vt 0.452830 0.000000
vt 0.320755 0.000000
vt 0.207547 0.000000
vt 0.462264 0.000000
vt 0.311321 0.000000
vt 0.556604 0.000000
vt 0.216981 0.000000
vt 0.301887 0.000000
vt 0.471698 0.000000
vt 0.292453 0.000000
vt 0.226415 0.000000
vt 0.481132 0.000000
vt 0.283019 0.000000
vt 0.547170 0.000000
vt 0.235849 0.000000
vt 0.018868 0.000000
vt 0.273585 0.000000
vt 0.490566 0.000000
vt 0.245283 0.000000
vt 0.500000 0.000000
vt 0.537736 0.000000
vt 0.254717 0.000000
vt 0.509434 0.000000
vt 0.528302 0.000000
vt 0.264151 0.000000
vt 0.518868 0.000000
vt 0.134021 0.000000
vt 0.113402 0.000000
vt 0.123711 0.000000
vt 0.103093 0.000000
vt 0.092784 0.000000
vt 0.144330 0.000000
vt 0.082474 0.000000
vt 0.072165 0.000000
vt 0.061856 0.000000
vt 0.154639 0.000000
vt 0.051546 0.000000
vt 0.041237 0.000000
vt 0.030928 0.000000
vt 0.164948 0.000000
vt 0.020619 0.000000
vt 0.010309 0.000000
vt 0.175258 0.000000
vt 0.917526 0.000000
vt 0.927835 0.000000
vt 0.938144 0.000000
vt 0.948454 0.000000
vt 0.958763 0.000000
vt 0.969072 0.000000
vt 0.979381 0.000000
vt 0.989691 0.000000
vt 0.185567 0.000000
vt 0.896907 0.000000
vt 0.907216 0.000000
vt 0.195876 0.000000
vt 0.876289 0.000000
vt 0.886598 0.000000
vt 0.865979 0.000000
vt 0.855670 0.000000
vt 0.845361 0.000000
vt 0.206186 0.000000
vt 0.835052 0.000000
vt 0.824742 0.000000
vt 0.814433 0.000000
vt 0.216495 0.000000
vt 0.804124 0.000000
vt 0.793814 0.000000
vt 0.226804 0.000000
vt 0.783505 0.000000
vt 0.773196 0.000000
vt 0.237113 0.000000
vt 0.762887 0.000000
vt 0.247423 0.000000
vt 0.752577 0.000000
vt 0.742268 0.000000
vt 0.257732 0.000000
vt 0.731959 0.000000
vt 0.268041 0.000000
vt 0.721649 0.000000
vt 0.711340 0.000000
vt 0.278351 0.000000
vt 0.701031 0.000000
vt 0.690722 0.000000
vt 0.288660 0.000000
vt 0.680412 0.000000
vt 0.515464 0.000000
vt 0.494845 0.000000
vt 0.505155 0.000000
vt 0.670103 0.000000
vt 0.525773 0.000000
vt 0.298969 0.000000
vt 0.536082 0.000000
vt 0.659794 0.000000
vt 0.546392 0.000000
vt 0.556701 0.000000
vt 0.567010 0.000000
vt 0.649485 0.000000
vt 0.577320 0.000000
vt 0.587629 0.000000
vt 0.639175 0.000000
vt 0.597938 0.000000
vt 0.608247 0.000000
vt 0.628866 0.000000
vt 0.618557 0.000000
vt 0.309278 0.000000
vt 0.319588 0.000000
vt 0.329897 0.000000
vt 0.340206 0.000000
vt 0.484536 0.000000
vt 0.474227 0.000000
vt 0.463918 0.000000
vt 0.350515 0.000000
vt 0.453608 0.000000
vt 0.443299 0.000000
vt 0.432990 0.000000
vt 0.422680 0.000000
vt 0.360825 0.000000
vt 0.412371 0.000000
vt 0.402062 0.000000
vt 0.391753 0.000000
vt 0.371134 0.000000
vt 0.381443 0.000000
vt 0.400000 0.000000
vt 0.200000 0.000000
vt 0.600000 0.000000
vt 0.800000 0.000000
vt 0.021277 0.000000
vt 0.978723 0.000000
vt 0.042553 0.000000
vt 0.957447 0.000000
vt 0.063830 0.000000
vt 0.936170 0.000000
vt 0.085106 0.000000
vt 0.914894 0.000000
vt 0.106383 0.000000
vt 0.893617 0.000000
vt 0.127660 0.000000
vt 0.872340 0.000000
vt 0.148936 0.000000
vt 0.170213 0.000000
vt 0.851064 0.000000
vt 0.191489 0.000000
vt 0.829787 0.000000
vt 0.212766 0.000000
vt 0.808511 0.000000
vt 0.234043 0.000000
vt 0.787234 0.000000
vt 0.255319 0.000000
vt 0.765957 0.000000
vt 0.276596 0.000000
vt 0.744681 0.000000
vt 0.297872 0.000000
vt 0.723404 0.000000
vt 0.319149 0.000000
vt 0.702128 0.000000
vt 0.340426 0.000000
vt 0.680851 0.000000
vt 0.361702 0.000000
vt 0.659574 0.000000
vt 0.382979 0.000000
vt 0.638298 0.000000
vt 0.404255 0.000000
vt 0.617021 0.000000
vt 0.425532 0.000000
vt 0.595745 0.000000
vt 0.446809 0.000000
vt 0.574468 0.000000
vt 0.468085 0.000000
vt 0.553191 0.000000
vt 0.489362 0.000000
vt 0.531915 0.000000
vt 0.510638 0.000000
vt 0.295455 0.000000
vt 0.272727 0.000000
vt 0.284091 0.000000
vt 0.306818 0.000000
vt 0.318182 0.000000
vt 0.261364 0.000000
vt 0.329545 0.000000
vt 0.250000 0.000000
vt 0.340909 0.000000
vt 0.352273 0.000000
vt 0.238636 0.000000
vt 0.363636 0.000000
vt 0.375000 0.000000
vt 0.227273 0.000000
vt 0.386364 0.000000
vt 0.397727 0.000000
vt 0.215909 0.000000
vt 0.409091 0.000000
vt 0.420455 0.000000
vt 0.204545 0.000000
vt 0.431818 0.000000
vt 0.443182 0.000000
vt 0.454545 0.000000
vt 0.465909 0.000000
vt 0.477273 0.000000
vt 0.488636 0.000000
vt 0.511364 0.000000
vt 0.522727 0.000000
vt 0.534091 0.000000
vt 0.545455 0.000000
vt 0.556818 0.000000
vt 0.568182 0.000000
vt 0.193182 0.000000
vt 0.579545 0.000000
vt 0.590909 0.000000
vt 0.602273 0.000000
vt 0.181818 0.000000
vt 0.613636 0.000000
vt 0.625000 0.000000
vt 0.636364 0.000000
vt 0.170455 0.000000
vt 0.647727 0.000000
vt 0.659091 0.000000
vt 0.159091 0.000000
vt 0.670455 0.000000
vt 0.681818 0.000000
vt 0.147727 0.000000
vt 0.693182 0.000000
vt 0.704545 0.000000
vt 0.136364 0.000000
vt 0.715909 0.000000
vt 0.727273 0.000000
vt 0.125000 0.000000
vt 0.738636 0.000000
vt 0.750000 0.000000
vt 0.113636 0.000000
vt 0.761364 0.000000
vt 0.772727 0.000000
vt 0.102273 0.000000
vt 0.784091 0.000000
vt 0.795455 0.000000
vt 0.806818 0.000000
vt 0.090909 0.000000
vt 0.818182 0.000000
vt 0.829545 0.000000
vt 0.079545 0.000000
vt 0.840909 0.000000
vt 0.852273 0.000000
vt 0.068182 0.000000
vt 0.863636 0.000000
vt 0.056818 0.000000
vt 0.875000 0.000000
vt 0.045455 0.000000
vt 0.886364 0.000000
vt 0.897727 0.000000
vt 0.034091 0.000000
vt 0.909091 0.000000
vt 0.022727 0.000000
vt 0.920455 0.000000
vt 0.011364 0.000000
vt 0.931818 0.000000
vt 0.943182 0.000000
vt 0.954545 0.000000
vt 0.965909 0.000000
vt 0.977273 0.000000
vt 0.988636 0.000000
vt 0.666667 0.000000
vt 0.333333 0.000000
vt 0.008333 0.000000
vt 0.016667 0.000000
vt 0.025000 0.000000
vt 0.591667 0.000000
vt 0.583333 0.000000
vt 0.033333 0.000000
vt 0.575000 0.000000
vt 0.566667 0.000000
vt 0.041667 0.000000
vt 0.558333 0.000000
vt 0.550000 0.000000
vt 0.050000 0.000000
vt 0.541667 0.000000
vt 0.533333 0.000000
vt 0.058333 0.000000
vt 0.525000 0.000000
vt 0.066667 0.000000
vt 0.516667 0.000000
vt 0.508333 0.000000
vt 0.075000 0.000000
vt 0.408333 0.000000
vt 0.391667 0.000000
vt 0.416667 0.000000
vt 0.425000 0.000000
vt 0.383333 0.000000
vt 0.433333 0.000000
vt 0.441667 0.000000
vt 0.450000 0.000000
vt 0.458333 0.000000
vt 0.466667 0.000000
vt 0.475000 0.000000
vt 0.366667 0.000000
vt 0.483333 0.000000
vt 0.491667 0.000000
vt 0.358333 0.000000
vt 0.083333 0.000000
vt 0.350000 0.000000
vt 0.341667 0.000000
vt 0.091667 0.000000
vt 0.683333 0.000000
vt 0.691667 0.000000
vt 0.700000 0.000000
vt 0.708333 0.000000
vt 0.716667 0.000000
vt 0.725000 0.000000
vt 0.675000 0.000000
vt 0.733333 0.000000
vt 0.325000 0.000000
vt 0.658333 0.000000
vt 0.650000 0.000000
vt 0.741667 0.000000
vt 0.641667 0.000000
vt 0.633333 0.000000
vt 0.758333 0.000000
vt 0.616667 0.000000
vt 0.100000 0.000000
vt 0.316667 0.000000
vt 0.608333 0.000000
vt 0.766667 0.000000
vt 0.775000 0.000000
vt 0.783333 0.000000
vt 0.308333 0.000000
vt 0.991667 0.000000
vt 0.791667 0.000000
vt 0.108333 0.000000
vt 0.300000 0.000000
vt 0.983333 0.000000
vt 0.808333 0.000000
vt 0.116667 0.000000
vt 0.816667 0.000000
vt 0.291667 0.000000
vt 0.975000 0.000000
vt 0.825000 0.000000
vt 0.966667 0.000000
vt 0.283333 0.000000
vt 0.833333 0.000000
vt 0.841667 0.000000
vt 0.958333 0.000000
vt 0.275000 0.000000
vt 0.850000 0.000000
vt 0.133333 0.000000
vt 0.950000 0.000000
vt 0.858333 0.000000
vt 0.941667 0.000000
vt 0.266667 0.000000
vt 0.866667 0.000000
vt 0.141667 0.000000
vt 0.933333 0.000000
vt 0.883333 0.000000
vt 0.925000 0.000000
vt 0.258333 0.000000
vt 0.891667 0.000000
vt 0.916667 0.000000
vt 0.900000 0.000000
vt 0.908333 0.000000
vt 0.150000 0.000000
vt 0.158333 0.000000
vt 0.241667 0.000000
vt 0.166667 0.000000
vt 0.233333 0.000000
vt 0.175000 0.000000
vt 0.225000 0.000000
vt 0.183333 0.000000
vt 0.216667 0.000000
vt 0.191667 0.000000
vt 0.208333 0.000000
s 1
usemtl Silver_M
f 38/1/1 101/2/1 73/3/2 1/4/2
f 56/5/3 92/6/3 108/7/4 37/8/4
f 2/9/5 81/10/5 90/11/6 19/12/6
f 20/13/7 83/14/7 99/15/8 55/16/8
f 1/4/2 73/3/2 74/17/9 3/18/9
f 3/18/9 74/17/9 75/19/10 4/20/10
f 4/20/10 75/19/10 76/21/11 5/22/11
f 5/23/11 76/24/11 77/25/12 6/26/12
f 6/26/12 77/25/12 78/27/13 7/28/13
f 7/28/13 78/27/13 79/29/14 8/30/14
f 8/30/14 79/29/14 80/31/15 9/32/15
f 9/32/15 80/31/15 81/10/5 2/9/5
f 83/14/7 20/13/7 27/33/16 82/34/16
f 82/34/16 27/33/16 26/35/17 84/36/17
f 84/36/17 26/35/17 25/37/18 85/38/18
f 85/38/18 25/37/18 24/39/19 86/40/19
f 86/40/19 24/39/19 23/41/20 87/42/20
f 87/43/20 23/44/20 22/45/21 88/46/21
f 88/46/21 22/45/21 21/47/22 89/48/22
f 89/48/22 21/47/22 19/12/6 90/11/6
f 92/6/3 56/5/3 63/49/23 91/50/23
f 91/50/23 63/49/23 62/51/24 93/52/24
f 93/52/24 62/51/24 61/53/25 94/54/25
f 94/54/25 61/53/25 60/55/26 95/56/26
f 95/56/26 60/55/26 59/57/27 96/58/27
f 96/59/27 59/60/27 58/61/28 97/62/28
f 97/62/28 58/61/28 57/63/29 98/64/29
f 98/64/29 57/63/29 55/16/8 99/15/8
f 101/2/1 38/1/1 45/65/30 100/66/30
f 100/66/30 45/65/30 44/67/31 102/68/31
f 102/68/31 44/67/31 43/69/32 103/70/32
f 103/70/32 43/69/32 42/71/33 104/72/33
f 104/72/33 42/71/33 41/60/34 105/73/34
f 105/73/34 41/74/34 40/75/35 106/76/35
f 106/76/35 40/75/35 39/77/36 107/78/36
f 107/78/36 39/77/36 37/8/4 108/7/4
f 19/79/37 21/80/37 22/81/37 23/82/37 24/83/37 25/84/37 26/85/37 27/86/37 20/87/37 55/88/37 57/89/37 58/90/37 59/91/37 60/92/37 61/93/37 62/94/37 63/95/37 56/96/37 37/97/37 39/98/37 40/99/37 41/100/37 42/101/37 43/102/37 44/103/37 45/104/37 38/105/37 1/106/37 3/107/37 4/108/37 5/109/37 6/110/37 7/111/37 8/112/37 9/113/37 2/114/37
f 11/115/38 18/116/38 74/117/38 73/118/38
f 18/116/38 17/119/38 75/120/38 74/117/38
f 17/119/38 16/121/38 76/122/38 75/120/38
f 16/121/38 15/123/38 77/124/38 76/122/38
f 15/123/38 14/125/38 78/126/38 77/124/38
f 14/125/38 13/127/38 79/128/38 78/126/38
f 13/127/38 12/129/38 80/130/38 79/128/38
f 12/129/38 10/131/38 81/132/38 80/130/38
f 30/133/38 28/134/38 83/105/38 82/135/38
f 31/136/38 30/133/38 82/135/38 84/137/38
f 32/138/38 31/136/38 84/137/38 85/139/38
f 33/140/38 32/138/38 85/139/38 86/141/38
f 34/142/38 33/140/38 86/141/38 87/143/38
f 35/144/38 34/142/38 87/143/38 88/145/38
f 36/146/38 35/144/38 88/145/38 89/147/38
f 29/148/38 36/146/38 89/147/38 90/149/38
f 66/150/38 64/151/38 92/152/38 91/153/38
f 67/154/38 66/150/38 91/153/38 93/155/38
f 68/156/38 67/154/38 93/155/38 94/157/38
f 69/158/38 68/156/38 94/157/38 95/159/38
f 70/160/38 69/158/38 95/159/38 96/161/38
f 71/162/38 70/160/38 96/161/38 97/163/38
f 72/164/38 71/162/38 97/163/38 98/165/38
f 65/166/38 72/164/38 98/165/38 99/106/38
f 48/167/38 46/168/38 101/169/38 100/170/38
f 49/171/38 48/167/38 100/170/38 102/172/38
f 50/173/38 49/171/38 102/172/38 103/174/38
f 51/175/38 50/173/38 103/174/38 104/176/38
f 52/177/38 51/175/38 104/176/38 105/178/38
f 53/179/38 52/177/38 105/178/38 106/180/38
f 54/181/38 53/179/38 106/180/38 107/182/38
f 47/183/38 54/181/38 107/182/38 108/184/38
f 10/131/38 29/148/38 90/149/38 81/132/38
f 46/168/38 11/115/38 73/118/38 101/169/38
f 64/151/38 47/183/38 108/184/38 92/152/38
f 28/134/38 65/166/38 99/106/38 83/105/38
f 139/185/39 145/186/39 116/187/39 110/188/39
f 153/189/40 159/190/40 146/191/40 138/192/40
f 158/193/38 130/194/38 117/195/38 144/196/38
f 111/197/41 118/198/41 132/199/41 124/200/41
f 125/201/42 131/202/42 160/203/42 152/204/42
f 109/205/43 112/206/44 113/207/43 115/208/44
f 110/188/45 114/209/46 113/210/45 112/211/46
f 111/197/47 115/212/47 113/213/47 114/214/47
f 116/187/48 119/215/48 120/216/48 122/217/48
f 117/195/49 121/218/49 120/219/49 119/220/49
f 118/198/50 122/221/50 120/222/50 121/223/50
f 123/224/51 126/225/51 127/226/51 129/227/51
f 124/200/52 128/228/52 127/229/52 126/230/52
f 125/201/53 129/231/53 127/232/53 128/209/53
f 130/194/54 133/233/54 134/234/54 136/235/54
f 131/202/55 135/217/55 134/236/55 133/237/55
f 132/199/56 136/238/56 134/239/56 135/240/56
f 137/241/57 140/235/57 141/242/57 143/243/57
f 138/192/58 142/244/58 141/245/58 140/246/58
f 139/185/59 143/247/59 141/248/59 142/249/59
f 144/196/60 147/250/60 148/251/60 150/252/60
f 145/186/61 149/253/61 148/254/61 147/255/61
f 146/191/62 150/256/62 148/257/62 149/258/62
f 151/259/63 154/260/63 155/261/63 157/218/63
f 152/204/64 156/262/64 155/263/64 154/264/64
f 153/189/65 157/265/65 155/266/65 156/267/65
f 158/193/66 161/268/66 162/269/66 164/270/66
f 159/190/67 163/271/67 162/272/67 161/273/67
f 160/203/68 164/274/68 162/275/68 163/276/68
f 123/224/69 109/205/69 115/208/69 126/225/69
f 126/230/70 115/212/70 111/197/70 124/200/70
f 110/188/71 116/187/71 122/217/71 114/209/71
f 114/214/72 122/221/72 118/198/72 111/197/72
f 117/195/73 130/194/73 136/235/73 121/218/73
f 121/223/74 136/238/74 132/199/74 118/198/74
f 131/202/75 125/201/75 128/209/75 135/217/75
f 135/240/76 128/228/76 124/200/76 132/199/76
f 151/259/77 123/224/77 129/227/77 154/260/77
f 154/264/78 129/231/78 125/201/78 152/204/78
f 130/194/79 158/193/79 164/270/79 133/233/79
f 133/237/80 164/274/80 160/203/80 131/202/80
f 159/190/81 153/189/81 156/267/81 163/271/81
f 163/276/82 156/262/82 152/204/82 160/203/82
f 137/241/83 151/259/83 157/218/83 140/235/83
f 140/246/84 157/265/84 153/189/84 138/192/84
f 158/193/85 144/196/85 150/252/85 161/268/85
f 161/273/86 150/256/86 146/191/86 159/190/86
f 145/186/87 139/185/87 142/249/87 149/253/87
f 149/258/88 142/244/88 138/192/88 146/191/88
f 109/205/89 137/241/89 143/243/89 112/206/89
f 112/211/90 143/247/90 139/185/90 110/188/90
f 144/196/91 117/195/91 119/220/91 147/250/91
f 147/255/92 119/215/92 116/187/92 145/186/92
f 123/224/37 151/259/37 137/241/37 109/205/37
f 195/277/39 201/278/39 172/279/39 166/280/39
f 209/281/40 215/282/40 202/283/40 194/284/40
f 214/285/38 186/286/38 173/287/38 200/288/38
f 167/289/41 174/290/41 188/291/41 180/292/41
f 181/293/42 187/294/42 216/280/42 208/279/42
f 165/295/93 168/296/93 169/297/93 171/298/93
f 166/299/94 170/300/94 169/301/94 168/302/94
f 167/289/95 171/303/95 169/301/95 170/300/95
f 172/304/96 175/305/96 176/306/96 178/307/96
f 173/287/97 177/308/97 176/309/97 175/310/97
f 174/290/98 178/307/98 176/306/98 177/311/98
f 179/312/99 182/313/99 183/314/99 185/315/99
f 180/292/100 184/316/100 183/317/100 182/318/100
f 181/293/101 185/319/101 183/320/101 184/253/101
f 186/286/102 189/321/102 190/322/102 192/323/102
f 187/294/103 191/249/103 190/324/103 189/325/103
f 188/291/104 192/326/104 190/327/104 191/328/104
f 193/329/105 196/330/105 197/331/105 199/332/105
f 194/284/106 198/333/106 197/334/106 196/335/106
f 195/277/107 199/336/107 197/337/107 198/338/107
f 200/288/108 203/339/108 204/340/108 206/341/108
f 201/278/109 205/342/109 204/343/109 203/344/109
f 202/283/110 206/345/110 204/346/110 205/347/110
f 207/348/111 210/349/111 211/350/111 213/351/111
f 208/352/112 212/353/112 211/354/112 210/355/112
f 209/281/113 213/356/113 211/354/113 212/353/113
f 214/285/114 217/357/114 218/358/114 220/359/114
f 215/282/115 219/360/115 218/361/115 217/362/115
f 216/363/116 220/364/116 218/361/116 219/360/116
f 179/312/117 165/295/117 171/298/117 182/313/117
f 182/318/70 171/303/70 167/289/70 180/292/70
f 166/299/118 172/304/118 178/307/118 170/300/118
f 170/300/119 178/307/119 174/290/119 167/289/119
f 173/287/120 186/286/120 192/323/120 177/308/120
f 177/311/74 192/326/74 188/291/74 174/290/74
f 187/294/121 181/293/121 184/253/121 191/249/121
f 191/328/122 184/316/122 180/292/122 188/291/122
f 207/348/123 179/312/123 185/315/123 210/349/123
f 210/365/124 185/319/124 181/293/124 208/279/124
f 186/286/125 214/285/125 220/359/125 189/321/125
f 189/325/126 220/366/126 216/280/126 187/294/126
f 215/282/127 209/281/127 212/353/127 219/360/127
f 219/360/128 212/353/128 208/352/128 216/363/128
f 193/329/83 207/348/83 213/351/83 196/330/83
f 196/335/129 213/356/129 209/281/129 194/284/129
f 214/285/85 200/288/85 206/341/85 217/357/85
f 217/362/86 206/345/86 202/283/86 215/282/86
f 201/278/130 195/277/130 198/338/130 205/342/130
f 205/347/131 198/333/131 194/284/131 202/283/131
f 165/295/132 193/329/132 199/332/132 168/296/132
f 168/367/133 199/336/133 195/277/133 166/280/133
f 200/288/134 173/287/134 175/310/134 203/339/134
f 203/344/135 175/368/135 172/279/135 201/278/135
f 179/312/37 207/348/37 193/329/37 165/295/37
usemtl BlackClearcoat_M
f 64/151/38 66/150/38 67/154/38 68/156/38 69/158/38 70/160/38 71/162/38 72/164/38 65/166/38 28/134/38 30/133/38 31/136/38 32/138/38 33/140/38 34/142/38 35/144/38 36/146/38 29/148/38 10/131/38 12/129/38 13/127/38 14/125/38 15/123/38 16/121/38 17/119/38 18/116/38 11/115/38 46/168/38 48/167/38 49/171/38 50/173/38 51/175/38 52/177/38 53/179/38 54/181/38 47/183/38
s 0
usemtl 
f 467/575/38 513/74/38 466/369/38
f 467/575/38 512/576/38 513/74/38
f 468/577/38 512/576/38 467/575/38
f 468/577/38 511/578/38 512/576/38
f 469/579/38 511/578/38 468/577/38
f 469/579/38 510/580/38 511/578/38
f 470/581/38 510/580/38 469/579/38
f 470/581/38 509/582/38 510/580/38
f 471/583/38 509/582/38 470/581/38
f 471/583/38 508/584/38 509/582/38
f 472/585/38 508/584/38 471/583/38
f 472/585/38 507/586/38 508/584/38
f 473/587/38 507/586/38 472/585/38
f 474/588/38 507/586/38 473/587/38
f 474/588/38 506/589/38 507/586/38
f 475/590/38 506/589/38 474/588/38
f 475/590/38 505/591/38 506/589/38
f 476/592/38 505/591/38 475/590/38
f 476/592/38 504/593/38 505/591/38
f 477/594/38 504/593/38 476/592/38
f 477/594/38 503/595/38 504/593/38
f 478/596/38 503/595/38 477/594/38
f 478/596/38 502/597/38 503/595/38
f 479/598/38 502/597/38 478/596/38
f 479/598/38 501/599/38 502/597/38
f 480/600/38 501/599/38 479/598/38
f 480/600/38 500/601/38 501/599/38
f 481/602/38 500/601/38 480/600/38
f 481/602/38 499/603/38 500/601/38
f 482/604/38 499/603/38 481/602/38
f 482/604/38 498/605/38 499/603/38
f 483/606/38 498/605/38 482/604/38
f 483/606/38 497/607/38 498/605/38
f 484/608/38 497/607/38 483/606/38
f 484/608/38 496/609/38 497/607/38
f 485/610/38 496/609/38 484/608/38
f 485/610/38 495/611/38 496/609/38
f 486/612/38 495/611/38 485/610/38
f 486/612/38 494/613/38 495/611/38
f 487/614/38 494/613/38 486/612/38
f 487/614/38 493/615/38 494/613/38
f 488/616/38 493/615/38 487/614/38
f 488/616/38 492/617/38 493/615/38
f 489/618/38 492/617/38 488/616/38
f 489/618/38 491/619/38 492/617/38
f 490/620/137 491/619/137 489/618/137
usemtl Material.001
f 225/369/38 227/369/38 223/369/38 221/369/38
f 222/369/38 224/369/38 228/369/38 226/369/38
f 226/369/38 228/369/38 227/369/38 225/369/38
f 227/369/38 231/369/38 229/369/38 223/369/38
f 224/369/38 230/369/38 232/369/38 228/369/38
f 221/369/38 233/369/38 235/369/38 225/369/38
f 226/369/38 236/369/38 234/369/38 222/369/38
f 241/369/38 243/369/38 239/369/38 237/369/38
f 238/369/38 240/369/38 244/369/38 242/369/38
f 253/369/38 254/369/38 243/369/38 241/369/38
f 243/369/38 247/369/38 245/369/38 239/369/38
f 240/369/38 246/369/38 248/369/38 244/369/38
f 237/369/38 249/369/38 251/369/38 241/369/38
f 242/369/38 252/369/38 250/369/38 238/369/38
f 242/369/38 244/369/38 254/369/38 253/369/38
f 349/370/38 347/371/38 348/372/38
f 325/373/38 323/374/38 324/375/38
f 350/376/38 347/371/38 349/370/38
f 350/376/38 346/377/38 347/371/38
f 326/378/38 323/374/38 325/373/38
f 326/378/38 322/379/38 323/374/38
f 351/380/38 346/377/38 350/376/38
f 351/380/38 345/381/38 346/377/38
f 327/382/38 322/379/38 326/378/38
f 352/383/38 345/381/38 351/380/38
f 352/383/38 344/384/38 345/381/38
f 327/382/38 321/385/38 322/379/38
f 328/386/38 321/385/38 327/382/38
f 353/387/38 344/384/38 352/383/38
f 256/388/38 361/74/38 255/369/38
f 256/388/38 360/389/38 361/74/38
f 353/387/38 343/390/38 344/384/38
f 329/391/38 321/385/38 328/386/38
f 354/392/38 343/390/38 353/387/38
f 329/391/38 320/393/38 321/385/38
f 354/392/38 342/394/38 343/390/38
f 355/395/38 342/394/38 354/392/38
f 330/396/38 320/393/38 329/391/38
f 355/395/38 341/397/38 342/394/38
f 330/396/38 319/398/38 320/393/38
f 356/399/38 341/397/38 355/395/38
f 331/400/38 319/398/38 330/396/38
f 356/399/38 340/401/38 341/397/38
f 357/402/38 340/401/38 356/399/38
f 332/403/38 319/398/38 331/400/38
f 332/403/38 318/404/38 319/398/38
f 357/402/38 339/405/38 340/401/38
f 358/406/38 339/405/38 357/402/38
f 333/407/38 318/404/38 332/403/38
f 358/406/38 338/408/38 339/405/38
f 359/409/38 338/408/38 358/406/38
f 333/407/38 317/410/38 318/404/38
f 334/411/38 317/410/38 333/407/38
f 359/409/38 337/412/38 338/408/38
f 360/389/38 337/412/38 359/409/38
f 335/413/38 317/410/38 334/411/38
f 335/413/38 297/414/38 317/410/38
f 297/414/38 316/415/38 317/410/38
f 256/388/38 258/416/38 360/389/38
f 258/416/38 259/417/38 360/389/38
f 259/417/38 260/418/38 360/389/38
f 260/418/38 261/419/38 360/389/38
f 261/419/38 262/420/38 360/389/38
f 262/420/38 263/421/38 360/389/38
f 263/421/38 264/422/38 360/389/38
f 264/422/38 265/423/38 360/389/38
f 265/423/38 266/424/38 360/389/38
f 266/424/38 267/425/38 360/389/38
f 267/425/38 268/426/38 360/389/38
f 268/426/38 269/427/38 360/389/38
f 269/427/38 337/412/38 360/389/38
f 269/427/38 270/428/38 337/412/38
f 270/428/38 336/429/38 337/412/38
f 336/429/38 296/430/38 335/413/38
f 296/430/38 297/414/38 335/413/38
f 271/431/136 336/429/136 270/428/136
f 298/432/38 316/415/38 297/414/38
f 336/429/38 295/433/38 296/430/38
f 272/434/38 336/429/38 271/431/38
f 299/435/38 316/415/38 298/432/38
f 336/429/38 294/436/38 295/433/38
f 273/437/38 336/429/38 272/434/38
f 300/438/38 316/415/38 299/435/38
f 336/429/38 293/439/38 294/436/38
f 274/440/38 336/429/38 273/437/38
f 274/440/38 293/439/38 336/429/38
f 301/441/38 316/415/38 300/438/38
f 274/440/38 292/442/38 293/439/38
f 301/441/38 315/443/38 316/415/38
f 275/444/38 292/442/38 274/440/38
f 275/444/38 291/445/38 292/442/38
f 302/446/38 315/443/38 301/441/38
f 275/444/38 290/447/38 291/445/38
f 276/448/38 290/447/38 275/444/38
f 303/449/38 315/443/38 302/446/38
f 276/448/38 289/450/38 290/447/38
f 277/451/38 289/450/38 276/448/38
f 304/452/38 315/443/38 303/449/38
f 277/451/38 288/453/38 289/450/38
f 304/452/38 314/454/38 315/443/38
f 278/455/38 288/453/38 277/451/38
f 278/455/38 287/456/38 288/453/38
f 305/457/38 314/454/38 304/452/38
f 278/455/38 286/458/38 287/456/38
f 279/459/38 286/458/38 278/455/38
f 306/460/38 314/454/38 305/457/38
f 279/459/38 285/461/38 286/458/38
f 306/460/38 313/462/38 314/454/38
f 280/463/38 285/461/38 279/459/38
f 256/388/38 257/464/38 258/416/38
f 280/463/38 284/465/38 285/461/38
f 307/466/38 313/462/38 306/460/38
f 281/467/38 284/465/38 280/463/38
f 308/468/38 313/462/38 307/466/38
f 308/468/38 312/469/38 313/462/38
f 282/470/38 284/465/38 281/467/38
f 309/471/38 312/469/38 308/468/38
f 309/471/38 311/472/38 312/469/38
f 283/473/38 284/465/38 282/470/38
f 310/474/38 311/472/38 309/471/38
f 375/475/38 373/476/38 374/477/38
f 375/475/38 372/478/38 373/476/38
f 375/475/38 371/479/38 372/478/38
f 376/480/38 371/479/38 375/475/38
f 376/480/38 370/481/38 371/479/38
f 376/480/38 369/482/38 370/481/38
f 376/480/38 368/483/38 369/482/38
f 377/484/38 368/483/38 376/480/38
f 377/484/38 367/485/38 368/483/38
f 377/484/38 366/486/38 367/485/38
f 377/484/38 365/487/38 366/486/38
f 378/488/38 365/487/38 377/484/38
f 378/488/38 364/489/38 365/487/38
f 378/488/38 363/490/38 364/489/38
f 378/488/38 362/369/38 363/490/38
f 379/491/38 362/369/38 378/488/38
f 379/491/38 451/492/38 362/369/38
f 451/492/38 452/493/38 362/369/38
f 452/493/38 453/494/38 362/369/38
f 453/494/38 454/495/38 362/369/38
f 454/495/38 455/496/38 362/369/38
f 455/496/38 456/497/38 362/369/38
f 456/497/38 457/498/38 362/369/38
f 457/498/38 458/499/38 362/369/38
f 458/499/38 459/74/38 362/369/38
f 380/500/38 449/501/38 379/491/38
f 449/501/38 450/502/38 379/491/38
f 450/502/38 451/492/38 379/491/38
f 381/503/38 447/504/38 380/500/38
f 447/504/38 448/505/38 380/500/38
f 448/505/38 449/501/38 380/500/38
f 381/503/38 446/506/38 447/504/38
f 381/503/38 445/507/38 446/506/38
f 381/503/38 444/508/38 445/507/38
f 382/509/38 444/508/38 381/503/38
f 382/509/38 443/510/38 444/508/38
f 382/509/38 442/511/38 443/510/38
f 382/509/38 441/512/38 442/511/38
f 383/513/38 441/512/38 382/509/38
f 383/513/38 440/514/38 441/512/38
f 383/513/38 439/515/38 440/514/38
f 384/516/38 439/515/38 383/513/38
f 384/516/38 438/517/38 439/515/38
f 384/516/38 437/518/38 438/517/38
f 385/519/38 437/518/38 384/516/38
f 385/519/38 436/520/38 437/518/38
f 386/521/38 436/520/38 385/519/38
f 386/521/38 435/522/38 436/520/38
f 386/521/38 434/523/38 435/522/38
f 387/524/38 434/523/38 386/521/38
f 387/524/38 433/525/38 434/523/38
f 388/526/38 433/525/38 387/524/38
f 388/526/38 432/527/38 433/525/38
f 388/526/38 431/528/38 432/527/38
f 389/529/38 431/528/38 388/526/38
f 389/529/38 430/530/38 431/528/38
f 389/529/38 429/531/38 430/530/38
f 390/532/38 429/531/38 389/529/38
f 390/532/38 428/533/38 429/531/38
f 412/534/38 410/535/38 411/536/38
f 390/532/38 427/537/38 428/533/38
f 413/538/38 410/535/38 412/534/38
f 391/539/38 427/537/38 390/532/38
f 414/540/38 410/535/38 413/538/38
f 391/539/38 426/541/38 427/537/38
f 415/542/38 410/535/38 414/540/38
f 416/543/38 410/535/38 415/542/38
f 417/544/38 410/535/38 416/543/38
f 391/539/38 425/545/38 426/541/38
f 418/546/38 410/535/38 417/544/38
f 419/547/38 410/535/38 418/546/38
f 391/539/38 424/548/38 425/545/38
f 420/549/38 410/535/38 419/547/38
f 421/550/38 410/535/38 420/549/38
f 391/539/38 423/551/38 424/548/38
f 422/552/38 410/535/38 421/550/38
f 392/553/38 423/551/38 391/539/38
f 423/551/38 410/535/38 422/552/38
f 392/553/38 410/535/38 423/551/38
f 393/554/38 410/535/38 392/553/38
f 394/555/38 410/535/38 393/554/38
f 395/556/38 410/535/38 394/555/38
f 395/556/38 409/557/38 410/535/38
f 395/556/38 408/558/38 409/557/38
f 395/556/38 407/559/38 408/558/38
f 396/560/38 407/559/38 395/556/38
f 396/560/38 406/561/38 407/559/38
f 396/560/38 405/562/38 406/561/38
f 396/560/38 404/563/38 405/562/38
f 396/560/38 403/564/38 404/563/38
f 397/565/38 403/564/38 396/560/38
f 397/565/38 402/566/38 403/564/38
f 397/565/38 401/567/38 402/566/38
f 397/565/38 400/568/38 401/567/38
f 398/569/38 400/568/38 397/565/38
f 398/569/38 399/570/38 400/568/38
f 462/571/38 460/369/38 461/572/38
f 462/571/38 463/573/38 460/369/38
f 463/573/38 465/74/38 460/369/38
f 464/574/38 465/74/38 463/573/38
f 540/621/38 538/622/38 539/623/38
f 541/624/38 538/622/38 540/621/38
f 542/625/38 538/622/38 541/624/38
f 542/625/38 537/626/38 538/622/38
f 543/627/38 537/626/38 542/625/38
f 543/627/38 536/628/38 537/626/38
f 544/629/38 536/628/38 543/627/38
f 545/630/38 536/628/38 544/629/38
f 545/630/38 535/631/38 536/628/38
f 546/632/38 535/631/38 545/630/38
f 547/633/38 535/631/38 546/632/38
f 547/633/38 534/634/38 535/631/38
f 548/635/38 534/634/38 547/633/38
f 549/636/38 534/634/38 548/635/38
f 549/636/38 533/637/38 534/634/38
f 550/638/38 533/637/38 549/636/38
f 551/639/38 533/637/38 550/638/38
f 551/639/38 532/640/38 533/637/38
f 552/641/38 553/642/38 551/639/38
f 553/642/38 554/643/38 551/639/38
f 554/643/38 555/644/38 551/639/38
f 555/644/38 556/645/38 551/639/38
f 556/645/38 557/646/38 551/639/38
f 557/646/38 558/468/38 551/639/38
f 558/468/38 559/647/38 551/639/38
f 559/647/38 560/648/38 551/639/38
f 560/648/38 561/649/38 551/639/38
f 561/649/38 562/650/38 551/639/38
f 562/650/38 563/651/38 551/639/38
f 563/651/38 532/640/38 551/639/38
f 563/651/38 564/652/38 532/640/38
f 564/652/38 531/653/38 532/640/38
f 565/654/137 531/653/137 564/652/137
f 566/655/38 531/653/38 565/654/38
f 567/656/38 531/653/38 566/655/38
f 567/656/38 530/657/38 531/653/38
f 568/658/38 530/657/38 567/656/38
f 569/659/38 530/657/38 568/658/38
f 570/660/38 530/657/38 569/659/38
f 570/660/38 529/661/38 530/657/38
f 571/662/38 529/661/38 570/660/38
f 572/663/38 529/661/38 571/662/38
f 572/663/38 528/664/38 529/661/38
f 573/665/38 528/664/38 572/663/38
f 574/666/38 528/664/38 573/665/38
f 574/666/38 527/667/38 528/664/38
f 575/668/38 527/667/38 574/666/38
f 576/669/38 527/667/38 575/668/38
f 576/669/38 526/670/38 527/667/38
f 577/671/38 526/670/38 576/669/38
f 578/672/38 526/670/38 577/671/38
f 578/672/38 525/673/38 526/670/38
f 579/674/38 525/673/38 578/672/38
f 580/675/38 525/673/38 579/674/38
f 580/675/38 524/676/38 525/673/38
f 581/677/38 524/676/38 580/675/38
f 582/678/38 524/676/38 581/677/38
f 582/678/38 523/679/38 524/676/38
f 583/680/38 523/679/38 582/678/38
f 584/681/38 523/679/38 583/680/38
f 585/682/38 523/679/38 584/681/38
f 585/682/38 522/683/38 523/679/38
f 586/684/38 522/683/38 585/682/38
f 587/685/38 522/683/38 586/684/38
f 587/685/38 521/686/38 522/683/38
f 588/687/38 521/686/38 587/685/38
f 589/688/38 521/686/38 588/687/38
f 589/688/38 520/689/38 521/686/38
f 590/690/38 520/689/38 589/688/38
f 590/690/38 519/691/38 520/689/38
f 591/692/38 519/691/38 590/690/38
f 591/692/38 518/693/38 519/691/38
f 592/694/38 518/693/38 591/692/38
f 593/695/38 518/693/38 592/694/38
f 593/695/38 517/696/38 518/693/38
f 594/697/38 517/696/38 593/695/38
f 594/697/38 516/698/38 517/696/38
f 595/699/38 516/698/38 594/697/38
f 595/699/38 515/700/38 516/698/38
f 596/701/38 515/700/38 595/699/38
f 597/702/38 515/700/38 596/701/38
f 597/702/38 514/369/38 515/700/38
f 597/702/38 602/74/38 514/369/38
f 598/703/38 602/74/38 597/702/38
f 599/704/38 602/74/38 598/703/38
f 600/705/38 602/74/38 599/704/38
f 601/706/38 602/74/38 600/705/38
f 605/707/38 603/369/38 604/708/38
f 605/707/38 606/74/38 603/369/38
f 701/370/38 699/371/38 700/372/38
f 677/373/38 675/374/38 676/375/38
f 702/376/38 699/371/38 701/370/38
f 702/376/38 698/377/38 699/371/38
f 678/378/38 675/374/38 677/373/38
f 678/378/38 674/379/38 675/374/38
f 703/380/38 698/377/38 702/376/38
f 703/380/38 697/381/38 698/377/38
f 679/382/38 674/379/38 678/378/38
f 704/383/38 697/381/38 703/380/38
f 704/383/38 696/384/38 697/381/38
f 679/382/38 673/385/38 674/379/38
f 680/386/38 673/385/38 679/382/38
f 705/387/38 696/384/38 704/383/38
f 608/388/38 713/74/38 607/369/38
f 608/388/38 712/389/38 713/74/38
f 705/387/38 695/390/38 696/384/38
f 681/391/38 673/385/38 680/386/38
f 706/392/38 695/390/38 705/387/38
f 681/391/38 672/393/38 673/385/38
f 706/392/38 694/394/38 695/390/38
f 707/395/38 694/394/38 706/392/38
f 682/396/38 672/393/38 681/391/38
f 707/395/38 693/397/38 694/394/38
f 682/396/38 671/398/38 672/393/38
f 708/399/38 693/397/38 707/395/38
f 683/400/38 671/398/38 682/396/38
f 708/399/38 692/401/38 693/397/38
f 709/402/38 692/401/38 708/399/38
f 684/403/38 671/398/38 683/400/38
f 684/403/38 670/404/38 671/398/38
f 709/402/38 691/405/38 692/401/38
f 710/406/38 691/405/38 709/402/38
f 685/407/38 670/404/38 684/403/38
f 710/406/38 690/408/38 691/405/38
f 711/409/38 690/408/38 710/406/38
f 685/407/38 669/410/38 670/404/38
f 686/411/38 669/410/38 685/407/38
f 711/409/38 689/412/38 690/408/38
f 712/389/38 689/412/38 711/409/38
f 687/413/38 669/410/38 686/411/38
f 687/413/38 649/414/38 669/410/38
f 649/414/38 668/415/38 669/410/38
f 608/388/38 610/416/38 712/389/38
f 610/416/38 611/417/38 712/389/38
f 611/417/38 612/418/38 712/389/38
f 612/418/38 613/419/38 712/389/38
f 613/419/38 614/420/38 712/389/38
f 614/420/38 615/421/38 712/389/38
f 615/421/38 616/422/38 712/389/38
f 616/422/38 617/423/38 712/389/38
f 617/423/38 618/424/38 712/389/38
f 618/424/38 619/425/38 712/389/38
f 619/425/38 620/426/38 712/389/38
f 620/426/38 621/427/38 712/389/38
f 621/427/38 689/412/38 712/389/38
f 621/427/38 622/428/38 689/412/38
f 622/428/38 688/429/38 689/412/38
f 688/429/38 648/430/38 687/413/38
f 648/430/38 649/414/38 687/413/38
f 623/431/38 688/429/38 622/428/38
f 650/432/38 668/415/38 649/414/38
f 688/429/38 647/433/38 648/430/38
f 624/434/38 688/429/38 623/431/38
f 651/435/38 668/415/38 650/432/38
f 688/429/38 646/436/38 647/433/38
f 625/437/38 688/429/38 624/434/38
f 652/438/38 668/415/38 651/435/38
f 688/429/38 645/439/38 646/436/38
f 626/440/38 688/429/38 625/437/38
f 626/440/38 645/439/38 688/429/38
f 653/441/38 668/415/38 652/438/38
f 626/440/38 644/442/38 645/439/38
f 653/441/38 667/443/38 668/415/38
f 627/444/38 644/442/38 626/440/38
f 627/444/38 643/445/38 644/442/38
f 654/446/38 667/443/38 653/441/38
f 627/444/38 642/447/38 643/445/38
f 628/448/38 642/447/38 627/444/38
f 655/449/38 667/443/38 654/446/38
f 628/448/38 641/450/38 642/447/38
f 629/451/38 641/450/38 628/448/38
f 656/452/38 667/443/38 655/449/38
f 629/451/38 640/453/38 641/450/38
f 656/452/38 666/454/38 667/443/38
f 630/455/38 640/453/38 629/451/38
f 630/455/38 639/456/38 640/453/38
f 657/457/38 666/454/38 656/452/38
f 630/455/38 638/458/38 639/456/38
f 631/459/38 638/458/38 630/455/38
f 658/460/38 666/454/38 657/457/38
f 631/459/38 637/461/38 638/458/38
f 658/460/38 665/462/38 666/454/38
f 632/463/38 637/461/38 631/459/38
f 608/388/38 609/464/38 610/416/38
f 632/463/38 636/465/38 637/461/38
f 659/466/38 665/462/38 658/460/38
f 633/467/38 636/465/38 632/463/38
f 660/468/38 665/462/38 659/466/38
f 660/468/38 664/469/38 665/462/38
f 634/470/38 636/465/38 633/467/38
f 661/471/38 664/469/38 660/468/38
f 661/471/38 663/472/38 664/469/38
f 635/473/38 636/465/38 634/470/38
f 662/474/38 663/472/38 661/471/38
f 727/475/38 725/476/38 726/477/38
f 727/475/38 724/478/38 725/476/38
f 727/475/38 723/479/38 724/478/38
f 728/480/38 723/479/38 727/475/38
f 728/480/38 722/481/38 723/479/38
f 728/480/38 721/482/38 722/481/38
f 728/480/38 720/483/38 721/482/38
f 729/484/38 720/483/38 728/480/38
f 729/484/38 719/485/38 720/483/38
f 729/484/38 718/486/38 719/485/38
f 729/484/38 717/487/38 718/486/38
f 730/488/38 717/487/38 729/484/38
f 730/488/38 716/489/38 717/487/38
f 730/488/38 715/490/38 716/489/38
f 730/488/38 714/369/38 715/490/38
f 731/491/38 714/369/38 730/488/38
f 731/491/38 803/492/38 714/369/38
f 803/492/38 804/493/38 714/369/38
f 804/493/38 805/494/38 714/369/38
f 805/494/38 806/495/38 714/369/38
f 806/495/38 807/496/38 714/369/38
f 807/496/38 808/497/38 714/369/38
f 808/497/38 809/498/38 714/369/38
f 809/498/38 810/499/38 714/369/38
f 810/499/38 811/74/38 714/369/38
f 732/500/38 801/501/38 731/491/38
f 801/501/38 802/502/38 731/491/38
f 802/502/38 803/492/38 731/491/38
f 733/503/38 799/504/38 732/500/38
f 799/504/38 800/505/38 732/500/38
f 800/505/38 801/501/38 732/500/38
f 733/503/38 798/506/38 799/504/38
f 733/503/38 797/507/38 798/506/38
f 733/503/38 796/508/38 797/507/38
f 734/509/38 796/508/38 733/503/38
f 734/509/38 795/510/38 796/508/38
f 734/509/38 794/511/38 795/510/38
f 734/509/38 793/512/38 794/511/38
f 735/513/38 793/512/38 734/509/38
f 735/513/38 792/514/38 793/512/38
f 735/513/38 791/515/38 792/514/38
f 736/516/38 791/515/38 735/513/38
f 736/516/38 790/517/38 791/515/38
f 736/516/38 789/518/38 790/517/38
f 737/519/38 789/518/38 736/516/38
f 737/519/38 788/520/38 789/518/38
f 738/521/38 788/520/38 737/519/38
f 738/521/38 787/522/38 788/520/38
f 738/521/38 786/523/38 787/522/38
f 739/524/38 786/523/38 738/521/38
f 739/524/38 785/525/38 786/523/38
f 740/526/38 785/525/38 739/524/38
f 740/526/38 784/527/38 785/525/38
f 740/526/38 783/528/38 784/527/38
f 741/529/38 783/528/38 740/526/38
f 741/529/38 782/530/38 783/528/38
f 741/529/38 781/531/38 782/530/38
f 742/532/38 781/531/38 741/529/38
f 742/532/38 780/533/38 781/531/38
f 764/534/38 762/535/38 763/536/38
f 742/532/38 779/537/38 780/533/38
f 765/538/38 762/535/38 764/534/38
f 743/539/38 779/537/38 742/532/38
f 766/540/38 762/535/38 765/538/38
f 743/539/38 778/541/38 779/537/38
f 767/542/38 762/535/38 766/540/38
f 768/543/38 762/535/38 767/542/38
f 769/544/38 762/535/38 768/543/38
f 743/539/38 777/545/38 778/541/38
f 770/546/38 762/535/38 769/544/38
f 771/547/38 762/535/38 770/546/38
f 743/539/38 776/548/38 777/545/38
f 772/549/38 762/535/38 771/547/38
f 773/550/38 762/535/38 772/549/38
f 743/539/38 775/551/38 776/548/38
f 774/552/38 762/535/38 773/550/38
f 744/553/38 775/551/38 743/539/38
f 775/551/38 762/535/38 774/552/38
f 744/553/38 762/535/38 775/551/38
f 745/554/38 762/535/38 744/553/38
f 746/555/38 762/535/38 745/554/38
f 747/556/38 762/535/38 746/555/38
f 747/556/38 761/557/38 762/535/38
f 747/556/38 760/558/38 761/557/38
f 747/556/38 759/559/38 760/558/38
f 748/560/38 759/559/38 747/556/38
f 748/560/38 758/561/38 759/559/38
f 748/560/38 757/562/38 758/561/38
f 748/560/38 756/563/38 757/562/38
f 748/560/38 755/564/38 756/563/38
f 749/565/38 755/564/38 748/560/38
f 749/565/38 754/566/38 755/564/38
f 749/565/38 753/567/38 754/566/38
f 749/565/38 752/568/38 753/567/38
f 750/569/38 752/568/38 749/565/38
f 750/569/38 751/570/38 752/568/38
f 813/709/38 884/573/38 812/369/38
f 814/710/38 884/573/38 813/709/38
f 815/711/38 884/573/38 814/710/38
f 815/711/38 883/712/38 884/573/38
f 815/711/38 882/713/38 883/712/38
f 816/714/38 882/713/38 815/711/38
f 816/714/38 881/715/38 882/713/38
f 816/714/38 880/716/38 881/715/38
f 817/717/38 880/716/38 816/714/38
f 817/717/38 879/718/38 880/716/38
f 817/717/38 878/719/38 879/718/38
f 818/720/38 878/719/38 817/717/38
f 818/720/38 877/721/38 878/719/38
f 818/720/38 876/722/38 877/721/38
f 819/723/38 876/722/38 818/720/38
f 819/723/38 875/724/38 876/722/38
f 820/725/38 875/724/38 819/723/38
f 820/725/38 874/726/38 875/724/38
f 820/725/38 873/727/38 874/726/38
f 821/728/38 873/727/38 820/725/38
f 861/729/38 859/730/38 860/571/38
f 862/731/38 859/730/38 861/729/38
f 863/732/38 859/730/38 862/731/38
f 863/732/38 858/733/38 859/730/38
f 864/734/38 858/733/38 863/732/38
f 865/735/38 858/733/38 864/734/38
f 821/728/38 872/468/38 873/727/38
f 866/736/38 858/733/38 865/735/38
f 866/736/38 857/633/38 858/733/38
f 867/737/38 857/633/38 866/736/38
f 868/738/38 857/633/38 867/737/38
f 869/739/38 857/633/38 868/738/38
f 869/739/38 856/740/38 857/633/38
f 870/741/38 856/740/38 869/739/38
f 871/742/38 856/740/38 870/741/38
f 872/468/38 856/740/38 871/742/38
f 872/468/38 855/743/38 856/740/38
f 821/728/38 855/743/38 872/468/38
f 822/744/38 855/743/38 821/728/38
f 822/744/38 854/745/38 855/743/38
f 822/744/38 853/746/38 854/745/38
f 823/747/38 894/748/38 822/744/38
f 894/748/38 895/749/38 822/744/38
f 895/749/38 853/746/38 822/744/38
f 895/749/38 896/750/38 853/746/38
f 896/750/38 897/751/38 853/746/38
f 897/751/38 852/708/38 853/746/38
f 898/752/38 852/708/38 897/751/38
f 899/753/38 852/708/38 898/752/38
f 823/747/38 893/754/38 894/748/38
f 823/747/38 892/707/38 893/754/38
f 900/755/38 852/708/38 899/753/38
f 900/755/38 851/756/38 852/708/38
f 823/747/38 891/757/38 892/707/38
f 823/747/38 890/758/38 891/757/38
f 901/759/38 851/756/38 900/755/38
f 823/747/38 889/760/38 890/758/38
f 902/675/38 851/756/38 901/759/38
f 823/747/38 888/761/38 889/760/38
f 823/747/38 887/659/38 888/761/38
f 903/762/38 851/756/38 902/675/38
f 823/747/38 886/763/38 887/659/38
f 824/764/38 886/763/38 823/747/38
f 903/762/38 850/765/38 851/756/38
f 824/764/38 885/766/38 886/763/38
f 904/767/38 850/765/38 903/762/38
f 824/764/38 932/74/38 885/766/38
f 905/768/38 850/765/38 904/767/38
f 906/769/38 850/765/38 905/768/38
f 906/769/38 849/770/38 850/765/38
f 824/764/38 931/771/38 932/74/38
f 907/772/38 849/770/38 906/769/38
f 825/773/38 931/771/38 824/764/38
f 908/574/38 849/770/38 907/772/38
f 908/574/38 848/774/38 849/770/38
f 825/773/38 930/775/38 931/771/38
f 909/776/38 848/774/38 908/574/38
f 826/777/38 930/775/38 825/773/38
f 910/778/38 848/774/38 909/776/38
f 910/778/38 847/779/38 848/774/38
f 826/777/38 929/780/38 930/775/38
f 911/781/38 847/779/38 910/778/38
f 826/777/38 928/782/38 929/780/38
f 911/781/38 846/783/38 847/779/38
f 827/673/38 928/782/38 826/777/38
f 912/784/38 846/783/38 911/781/38
f 913/785/38 846/783/38 912/784/38
f 827/673/38 927/786/38 928/782/38
f 913/785/38 845/787/38 846/783/38
f 914/788/38 845/787/38 913/785/38
f 828/789/38 927/786/38 827/673/38
f 828/789/38 926/790/38 927/786/38
f 915/791/38 845/787/38 914/788/38
f 828/789/38 925/792/38 926/790/38
f 915/791/38 844/793/38 845/787/38
f 916/794/38 844/793/38 915/791/38
f 829/795/38 925/792/38 828/789/38
f 829/795/38 924/796/38 925/792/38
f 917/692/38 844/793/38 916/794/38
f 918/797/38 844/793/38 917/692/38
f 829/795/38 923/798/38 924/796/38
f 918/797/38 843/799/38 844/793/38
f 919/800/38 843/799/38 918/797/38
f 829/795/38 922/801/38 923/798/38
f 920/802/38 843/799/38 919/800/38
f 829/795/38 921/803/38 922/801/38
f 921/803/38 843/799/38 920/802/38
f 829/795/38 843/799/38 921/803/38
f 830/804/38 843/799/38 829/795/38
f 830/804/38 842/628/38 843/799/38
f 831/805/38 842/628/38 830/804/38
f 831/805/38 841/806/38 842/628/38
f 832/807/38 841/806/38 831/805/38
f 832/807/38 840/808/38 841/806/38
f 833/809/38 840/808/38 832/807/38
f 833/809/38 839/810/38 840/808/38
f 834/811/38 839/810/38 833/809/38
f 834/811/38 838/812/38 839/810/38
f 835/813/38 838/812/38 834/811/38
f 835/813/38 837/814/38 838/812/38
f 836/572/38 837/814/38 835/813/38
